<svg width="777" height="767" viewBox="0 0 777 767" fill="none" xmlns="http://www.w3.org/2000/svg">
<rect y="687.732" width="777" height="23.6835" fill="#070707"/>
<path d="M0 711.415H777V726.069C777 748.161 759.091 766.069 737 766.069H24C10.7452 766.069 0 755.324 0 742.069V711.415Z" fill="#B8D3FF"/>
<g clip-path="url(#clip0_120_468)">
<path d="M105.823 438.124L95.548 454.688L100.621 457.832C102.113 458.755 102.922 460.444 102.773 462.191C102.69 463.157 102.659 464.13 102.681 465.105C102.72 466.855 101.805 468.484 100.263 469.311L95.005 472.131L104.221 489.315L109.478 486.495C111.02 485.667 112.884 485.807 114.32 486.806C115.12 487.364 115.948 487.876 116.799 488.341C118.338 489.184 119.296 490.791 119.241 492.545L119.052 498.51L138.536 499.115L138.716 493.129C138.769 491.373 139.844 489.846 141.432 489.096C141.863 488.893 142.291 488.677 142.715 488.45C143.138 488.223 143.554 487.987 143.962 487.74C145.458 486.837 147.316 486.784 148.802 487.705L153.912 490.87L164.186 474.306L159.103 471.151C157.611 470.226 156.804 468.536 156.956 466.787C157.04 465.825 157.071 464.856 157.052 463.885C157.015 462.138 157.93 460.51 159.471 459.684L164.73 456.864L155.515 439.681L150.255 442.501C148.715 443.327 146.854 443.189 145.418 442.191C144.62 441.638 143.795 441.127 142.948 440.665C141.407 439.824 140.447 438.217 140.501 436.463L140.686 430.483L121.204 429.878L121.018 435.859C120.963 437.609 119.891 439.131 118.309 439.877C117.876 440.082 117.445 440.299 117.017 440.528C116.594 440.755 116.178 440.991 115.771 441.238C114.267 442.147 112.4 442.198 110.907 441.272L105.823 438.124ZM122.318 450.427C130.089 446.259 139.757 449.178 143.925 456.948C148.092 464.719 145.18 474.4 137.41 478.568C129.639 482.735 119.95 479.81 115.782 472.039C111.615 464.27 114.547 454.593 122.318 450.427Z" fill="#EBEBEB"/>
<path d="M652.299 359.181L658.403 369.758L661.64 367.889C662.592 367.338 663.764 367.391 664.684 367.992C665.194 368.324 665.722 368.629 666.266 368.905C667.243 369.403 667.872 370.388 667.872 371.486V375.224H680.089V371.486C680.089 370.39 680.718 369.403 681.694 368.905C682.239 368.628 682.767 368.324 683.276 367.992C684.197 367.391 685.367 367.338 686.321 367.889L689.558 369.758L695.662 359.181L692.409 357.308C691.456 356.759 690.931 355.713 690.988 354.613C691.003 354.315 691.01 354.016 691.01 353.715C691.01 353.414 691.003 353.114 690.988 352.816C690.932 351.723 691.453 350.681 692.402 350.133L695.663 348.249L689.56 337.671L686.313 339.544C685.361 340.093 684.19 340.038 683.269 339.438C682.761 339.107 682.236 338.802 681.694 338.526C680.719 338.029 680.092 337.041 680.092 335.946V332.207H667.875V335.946C667.875 337.041 667.248 338.029 666.271 338.526C665.729 338.802 665.202 339.107 664.696 339.438C663.775 340.04 662.604 340.093 661.65 339.544L658.404 337.671L652.301 348.249L655.549 350.123C656.499 350.671 657.021 351.714 656.965 352.809C656.951 353.108 656.942 353.411 656.942 353.715C656.942 354.016 656.949 354.315 656.965 354.613C657.021 355.713 656.497 356.759 655.544 357.31L652.299 359.181ZM663.976 353.715C663.976 348.19 668.45 343.716 673.975 343.716C679.5 343.716 683.985 348.19 683.985 353.715C683.985 359.24 679.5 363.724 673.975 363.724C668.45 363.724 663.976 359.24 663.976 353.715Z" fill="#EBEBEB"/>
<path d="M241.014 112.277L247.118 122.855L250.355 120.985C251.307 120.435 252.479 120.488 253.4 121.088C253.909 121.42 254.437 121.726 254.982 122.002C255.958 122.499 256.587 123.486 256.587 124.583V128.322H268.804V124.583C268.804 123.486 269.433 122.499 270.41 122.002C270.954 121.724 271.482 121.42 271.992 121.088C272.912 120.488 274.083 120.435 275.036 120.985L278.273 122.855L284.377 112.277L281.124 110.405C280.171 109.856 279.646 108.809 279.702 107.71C279.717 107.412 279.724 107.112 279.724 106.811C279.724 106.51 279.717 106.211 279.702 105.913C279.646 104.819 280.167 103.777 281.116 103.23L284.377 101.346L278.273 90.768L275.027 92.6406C274.074 93.1896 272.903 93.135 271.983 92.5344C271.475 92.2038 270.95 91.8984 270.408 91.6224C269.433 91.1251 268.804 90.1379 268.804 89.0429V85.3036H256.587V89.0429C256.587 90.1379 255.96 91.1251 254.983 91.6224C254.441 91.8984 253.915 92.2038 253.409 92.5344C252.488 93.1364 251.316 93.1896 250.363 92.6406L247.116 90.768L241.013 101.346L244.261 103.22C245.211 103.767 245.734 104.81 245.678 105.905C245.663 106.205 245.655 106.507 245.655 106.811C245.655 107.112 245.663 107.412 245.678 107.71C245.734 108.809 245.21 109.856 244.256 110.406L241.014 112.277ZM252.691 106.811C252.691 101.287 257.166 96.8123 262.69 96.8123C268.215 96.8123 272.7 101.287 272.7 106.811C272.7 112.336 268.215 116.821 262.69 116.821C257.166 116.821 252.691 112.336 252.691 106.811Z" fill="#EBEBEB"/>
<path d="M608.575 501.528C641.674 501.528 668.493 474.709 668.493 441.61C668.493 408.525 641.674 381.692 608.575 381.692C575.491 381.692 548.658 408.525 548.658 441.61C548.658 474.709 575.491 501.528 608.575 501.528ZM608.575 413.636C624.033 413.636 636.564 426.154 636.564 441.611C636.564 457.069 624.033 469.6 608.575 469.6C593.118 469.6 580.586 457.069 580.586 441.611C580.586 426.152 593.118 413.636 608.575 413.636Z" fill="#EBEBEB"/>
<path d="M597.056 499.044H620.097L618.824 515.354H598.33L597.056 499.044Z" fill="#EBEBEB"/>
<path d="M640.913 491.28L657.206 474.986L667.838 487.422L653.347 501.913L640.913 491.28Z" fill="#EBEBEB"/>
<path d="M666.435 454.779V431.737L682.745 433.011V453.505L666.435 454.779Z" fill="#EBEBEB"/>
<path d="M658.671 410.922L642.378 394.629L654.812 383.997L669.303 398.488L658.671 410.922Z" fill="#EBEBEB"/>
<path d="M622.171 385.4H599.128L600.403 369.09H620.897L622.171 385.4Z" fill="#EBEBEB"/>
<path d="M578.314 393.164L562.02 409.456L551.387 397.023L565.878 382.53L578.314 393.164Z" fill="#EBEBEB"/>
<path d="M552.791 429.664V452.707L536.48 451.432V430.938L552.791 429.664Z" fill="#EBEBEB"/>
<path d="M560.554 473.521L576.847 489.814L564.413 500.447L549.922 485.955L560.554 473.521Z" fill="#EBEBEB"/>
<path d="M306.206 131.905H465.15V40.7489H306.206V131.904V131.905Z" fill="#EBEBEB"/>
<path d="M492.035 131.905H465.15V103.91L492.035 131.905Z" fill="#EBEBEB"/>
<path d="M448.522 56.512H322.836V58.2444H448.522V56.512Z" fill="white"/>
<path d="M395.171 65.8647H322.836V67.5971H395.171V65.8647Z" fill="white"/>
<path d="M427.388 84.5732H322.836V86.3056H427.388V84.5732Z" fill="white"/>
<path d="M448.522 93.9259H322.836V95.6583H448.522V93.9259Z" fill="white"/>
<path d="M448.522 103.28H322.836V105.013H448.522V103.28Z" fill="white"/>
<path d="M377.329 112.633H322.836V114.365H377.329V112.633Z" fill="white"/>
<path d="M653.459 316.553C654.364 316.358 655.227 315.774 655.724 315.019C656.201 314.295 656.438 313.224 656.205 312.383C655.696 310.552 653.874 309.302 651.896 309.725C650.992 309.919 650.128 310.504 649.631 311.26C649.155 311.983 648.917 313.054 649.15 313.896C649.659 315.727 651.482 316.977 653.459 316.553Z" fill="#064CC1"/>
<path d="M441.037 242.935C442.476 242.627 443.574 241.106 443.179 239.682C442.782 238.253 441.361 237.278 439.817 237.608C438.378 237.917 437.279 239.438 437.676 240.862C438.073 242.292 439.494 243.266 441.037 242.935Z" fill="#064CC1"/>
<path d="M481.149 112.661C482.566 112.357 483.647 110.861 483.258 109.459C482.867 108.052 481.468 107.092 479.949 107.418C478.533 107.722 477.451 109.218 477.84 110.62C478.23 112.026 479.63 112.986 481.149 112.661Z" fill="#064CC1"/>
<path d="M565.141 56.8056C565.923 56.6374 566.668 56.1327 567.097 55.479C567.509 54.8533 567.714 53.9296 567.512 53.2021C567.072 51.6201 565.498 50.54 563.789 50.9059C563.007 51.0742 562.262 51.5788 561.831 52.2325C561.419 52.8582 561.214 53.782 561.416 54.5095C561.857 56.0914 563.432 57.1716 565.141 56.8056Z" fill="#064CC1"/>
<path d="M505.852 314.942C505.912 314.951 505.973 314.958 506.033 314.967C508.201 315.262 509.867 312.967 509.433 311.073C508.999 309.175 506.485 307.782 504.652 308.934C504.6 308.967 504.549 308.999 504.498 309.03C503.333 309.764 502.459 311.078 502.85 312.485C503.247 313.91 504.373 314.741 505.852 314.942Z" fill="#064CC1"/>
<path d="M444.731 263.829C446.517 269.016 448.895 273.974 451.507 278.815C454.191 283.789 457.115 288.629 460.401 293.255C463.099 297.051 466.196 301.879 470.62 303.876C471.926 304.465 473.108 303.007 472.9 301.864C472.069 297.336 468.132 292.949 465.665 289.099C465.052 288.142 464.449 287.182 463.847 286.218C463.158 284.754 462.495 283.256 462.905 281.705C463.544 279.291 466.211 278.303 468.33 279.3C470.161 282.127 472.074 284.905 474.086 287.614C477.469 292.166 487.245 304.093 496.859 308.022C499.664 309.169 502.224 305.527 499.323 303.457C496.632 301.534 493.571 299.123 490.909 296.627C489.537 294.374 488.512 291.905 489.86 289.937C491.815 287.083 494.793 289.698 497.431 291.039C514.646 307.193 536.935 318.355 563.509 321.154C565.353 322.003 567.422 322.962 566.827 325.103C566.168 327.478 563.659 327.246 561.589 327.553C559.808 327.255 558.034 326.914 556.263 326.529C552.571 325.727 548.628 323.992 544.821 324.538C543.286 324.758 543.119 326.619 543.931 327.573C546.438 330.523 551.446 331.559 555.115 332.477C559.393 333.547 563.846 334.18 568.244 334.55C572.81 334.934 577.412 334.896 581.976 334.497C585.856 334.159 590.15 333.889 593.199 331.325C594.263 330.429 593.665 328.779 592.445 328.394C589.808 327.562 586.926 327.888 584.118 328.221C584.069 328.19 584.014 328.165 583.955 328.155C582.7 327.941 580.768 328.06 579.89 327.092C578.889 325.989 579.223 324.345 580.113 323.316C580.839 322.478 581.811 321.994 582.86 321.717C590.689 321.358 598.821 320.319 607.252 318.511C646.641 310.063 672.976 289.137 687.917 262.934C689.155 260.921 690.579 258.811 693.019 258.324C696.038 257.721 696.281 259.963 696.354 262.19C696.23 262.531 696.115 262.88 696.007 263.238C694.648 265.965 693.199 268.649 691.623 271.271C687.843 277.56 683.484 283.553 678.412 288.93C675.851 291.647 673.106 294.206 670.37 296.756C667.878 299.078 664.519 301.262 662.738 304.149C661.758 305.735 663.178 307.575 665.005 307.283C668.685 306.694 672.185 303.839 675.095 301.693C678.281 299.344 681.106 296.607 683.785 293.735C686.05 291.306 688.196 288.778 690.224 286.163C691.643 285.048 693.036 283.596 694.717 284.188C696.717 284.891 695.968 287.486 695.437 289.379C695.27 289.628 695.102 289.879 694.935 290.129C694.693 290.489 694.437 290.853 694.221 291.229C693.717 291.893 693.21 292.556 692.707 293.22C690.748 295.807 688.203 298.435 687.131 301.504C686.778 302.511 687.897 303.688 688.971 303.327C695.236 301.217 700.249 294.167 703.862 289.082C705.997 286.076 707.988 282.98 709.677 279.718C711.193 276.793 713.102 273.361 712.801 270.014C712.664 268.491 711.107 267.915 709.894 268.816C707.715 270.431 704.374 275.962 704.054 276.316C703.08 277.395 702.277 278.158 700.815 277.332C699.529 276.606 699.424 275.905 699.472 274.454C699.576 271.271 705.857 259.833 708.244 253.504C709.726 249.576 710.982 245.556 711.931 241.476C712.787 237.791 713.88 233.426 712.044 229.892C711.441 228.729 709.795 228.781 709.074 229.777C706.851 232.843 706.297 237.137 705.107 240.664C704.958 241.106 704.802 241.545 704.645 241.985C704.288 242.488 703.949 243 703.553 243.496C703.485 243.58 703.413 243.655 703.339 243.732C702.343 244.657 701.182 245.385 700.044 245.06C698.976 244.755 698.636 243.524 698.464 242.581C698.369 242.066 698.327 241.622 698.253 241.207C698.327 238.626 699.299 236.003 699.584 233.423C703.37 217.846 704.034 201.484 701.843 185.442C702.334 184.719 702.838 184.036 703.881 183.779C705.113 183.477 706.418 183.795 707.598 184.355C707.697 184.52 707.79 184.684 707.868 184.839C708.022 185.144 708.118 185.466 708.202 185.789C708.507 191.033 707.914 196.657 709.171 201.661C709.818 204.235 713.42 204.285 714.355 201.894C716.451 196.539 715.561 189.406 715.049 183.814C714.506 177.888 713.485 172.009 711.963 166.244C710.474 160.598 708.522 155.063 706.121 149.718C703.705 144.338 700.854 137.879 696.274 133.885C694.58 132.408 691.131 133.533 691.924 136.091C692.381 137.57 692.971 139.012 693.631 140.434C693.466 141.898 692.886 143.284 691.354 143.899C690.541 144.227 689.87 144.116 689.242 143.848C676.192 117.144 654.281 94.8689 625.069 83.8368C623.491 82.9308 621.995 82.0011 621.824 80.1846C621.701 78.8889 621.97 77.6125 623.077 76.8569C623.674 76.4482 624.456 76.3331 625.271 76.3375C629.304 77.8058 633.315 79.3198 637.433 80.5107C638.85 80.9209 640.048 79.215 638.996 78.1363C627.89 66.756 608.314 63.7103 592.811 62.9001C583.631 62.4205 574.406 62.9768 565.303 64.1633C562.424 64.5381 559.428 64.9203 556.44 65.4338C554.336 65.2553 551.942 64.1854 552.122 61.7816C552.212 60.5789 553.148 59.906 554.209 59.3733C555.631 58.9453 556.886 58.2931 557.765 56.9045C558.116 56.3497 558.115 55.4702 557.588 54.9979C553.768 51.5803 546.195 54.508 541.791 55.6443C535.776 57.1952 529.902 59.2759 524.113 61.4746C518.409 63.6409 512.701 65.8869 507.149 68.3955C502.851 70.3375 496.283 72.7649 494.451 77.3188C493.937 78.5967 495.085 80.22 496.509 80.2023C498.386 80.1786 499.81 79.5544 501.295 78.7428C502.37 78.734 503.355 79.1221 504.063 80.3424C505.043 82.0321 503.89 83.3941 503.107 84.8521C502.028 85.4984 500.96 86.161 499.909 86.8531C494.343 90.526 486.091 96.0332 485.07 103.025C484.844 104.565 486.745 105.64 488.083 104.967C491.135 103.434 493.406 100.54 495.864 98.2673C495.877 98.2555 495.892 98.2437 495.905 98.2319C497.393 97.5236 498.836 96.2634 500.4 96.0435C502.651 95.7292 504.281 97.1134 503.418 99.2973C503.105 100.091 502.601 100.867 502.075 101.62C464.232 129.314 451.38 174.994 458.744 217.603C458.338 219.487 457.438 221.5 455.434 221.696C453.117 221.923 452.621 219.652 451.615 218.072C450.765 213.942 450.064 209.786 449.49 205.608C448.788 200.494 449.078 194.929 447.809 189.933C447.4 188.32 444.89 188.24 444.434 189.871C442.917 195.294 443.605 201.882 443.905 207.44C444.203 213.005 444.874 218.608 445.87 224.097C447.939 235.499 451.665 246.58 456.37 257.205C457.338 259.392 458.36 261.555 459.429 263.696C459.442 265.674 459.222 268.563 456.789 268.599C454.674 268.63 453.682 266.708 452.441 265.32C451.757 263.924 451.069 262.529 450.368 261.141C448.138 256.718 446.556 251.593 443.475 247.655C442.751 246.729 441.206 247.432 441.147 248.472C440.853 253.579 443.086 259.048 444.731 263.829ZM693.681 153.544C694.5 151.583 697.077 150.743 699.146 151.214C699.225 151.387 699.311 151.559 699.388 151.732C701.701 156.909 703.596 162.265 705.051 167.727C705.528 169.518 705.941 171.324 706.323 173.135C706.041 174.652 705.559 176.321 703.754 176.702C702.308 177.006 701.256 176.228 700.15 175.65C698.573 168.183 696.38 160.837 693.584 153.729C693.615 153.665 693.653 153.612 693.681 153.544ZM572.06 71.58C572.289 71.2627 572.557 70.9735 572.883 70.7388C573.397 70.3699 573.978 70.1043 574.541 69.8092C580.501 69.3355 586.489 69.1968 592.463 69.4889C596.95 69.7088 601.414 70.1855 605.829 70.9425C606.588 71.4014 607.34 71.8633 607.78 72.6646C608.499 73.9705 608.285 75.8461 607.175 76.8997C605.382 78.6026 602.795 77.611 600.437 77.5874C592.8 76.5161 584.792 76.1516 576.437 76.5647C573.685 75.9509 571.175 74.003 572.06 71.58ZM508.733 75.7694C509.768 74.8013 510.978 74.0222 512.241 73.364C512.836 73.0541 513.439 72.8121 513.982 72.5008C517.927 70.8259 521.929 69.2587 525.926 67.7241C528.975 66.5539 532.047 65.456 535.149 64.4348C537.321 64.0806 539.399 63.0728 541.624 63.2558C543.751 63.4314 545.108 64.9321 544.428 66.9892C544.13 67.8893 543.134 68.8205 542.373 69.635C541.13 70.2519 539.927 70.9395 538.79 71.7261C536.53 73.2903 538.775 76.7551 541.211 76.1988C545.131 75.306 548.956 74.2908 552.797 73.3449C553.759 73.3891 554.724 73.3227 555.66 73.609C557.274 74.1033 558.609 75.337 557.585 76.9883C556.97 77.9814 556.014 78.7546 554.945 79.2696C554.163 79.4246 553.387 79.5677 552.599 79.7374C539.507 82.5456 527.858 86.7321 517.589 92.0312C515.172 92.1758 512.588 91.6932 513.38 88.6962C514.201 85.5929 517.286 85.2284 519.633 83.7512C519.686 83.7173 519.721 83.6745 519.767 83.6376C521.895 82.6283 523.922 81.4536 525.321 79.6548C526.337 78.3503 525.212 76.5397 523.672 76.398C519.609 76.0232 515.355 78.5466 511.809 80.2082C511.787 80.2185 511.763 80.2303 511.741 80.2421C510.904 80.4605 510.072 80.5859 509.203 80.1772C507.085 79.1826 507.244 77.1609 508.733 75.7694ZM456.204 232.175C457.693 229.083 460.115 230.156 462.045 231.993C466.414 247.289 473.422 261.847 482.864 274.618C483.238 276.572 483.247 278.595 481.592 279.837C479.97 281.053 479.155 280.261 477.529 280.11C471.395 271.293 466.171 261.864 461.971 252.042C459.499 246.259 457.436 240.325 455.67 234.309C455.72 233.584 455.869 232.87 456.204 232.175Z" fill="#064CC1"/>
<path d="M651.091 90.3725C653.351 92.0415 657.042 95.6554 660.19 94.7715C660.921 94.5649 661.292 94.075 661.411 93.374C661.957 90.1748 657.684 87.495 655.432 85.9072C653.708 84.6927 648.502 81.2647 646.593 83.6892C644.663 86.1344 649.478 89.1817 651.091 90.3725Z" fill="#064CC1"/>
<path d="M666.473 100.438C667.772 100.159 668.763 98.7867 668.406 97.5014C668.048 96.2117 666.765 95.3322 665.372 95.6303C664.074 95.9092 663.082 97.2816 663.439 98.5669C663.798 99.8551 665.08 100.736 666.473 100.438Z" fill="#064CC1"/>
<path d="M712.75 214.33C713.625 214.142 714.46 213.576 714.943 212.844C715.403 212.143 715.635 211.107 715.407 210.292C714.915 208.52 713.151 207.308 711.236 207.72C710.361 207.908 709.525 208.474 709.043 209.206C708.582 209.907 708.351 210.943 708.578 211.758C709.071 213.53 710.836 214.74 712.75 214.33Z" fill="#064CC1"/>
<path d="M715.468 260.223C716.781 261.033 718.627 260.652 719.458 259.367C720.711 257.429 721.734 255.127 722.306 252.909C722.721 251.301 723.059 247.129 720.026 247.796C718.102 248.22 717.509 250.193 716.823 251.757C716.132 253.328 715.357 254.826 714.584 256.359C713.899 257.717 714.045 259.346 715.468 260.223Z" fill="#064CC1"/>
<path d="M444.806 179.123C445.802 180.918 448.491 180.595 449.185 178.748C450.374 175.585 450.316 171.683 450.96 168.347C451.454 165.782 452.351 162.366 450.342 160.247C449.962 159.847 449.275 159.717 448.779 159.99C445.956 161.539 445.324 165.833 444.709 168.658C443.98 171.997 443.058 175.973 444.806 179.123Z" fill="#064CC1"/>
<path d="M581.517 319.6C648.627 318.728 702.323 263.617 701.45 196.508C700.578 129.398 645.467 75.7018 578.358 76.5743C511.248 77.4468 457.552 132.557 458.424 199.667C459.297 266.777 514.407 320.473 581.517 319.6Z" fill="#4285F4"/>
<g opacity="0.1">
<path d="M682.714 167.017C685.686 176.855 687.283 187.29 687.283 198.097C687.283 222.26 679.298 244.559 665.825 262.498C646.242 288.572 615.062 305.437 579.945 305.437C539.548 305.437 504.364 283.122 486.047 250.147" fill="#4285F4"/>
<path d="M682.714 167.017C685.686 176.855 687.283 187.29 687.283 198.097C687.283 222.26 679.298 244.559 665.825 262.498C646.242 288.572 615.062 305.437 579.945 305.437C539.548 305.437 504.364 283.122 486.047 250.147" stroke="black" stroke-width="3" stroke-miterlimit="10"/>
<path d="M553.724 93.9835C562.114 91.8762 570.899 90.7577 579.943 90.7577C618.667 90.7577 652.603 111.265 671.481 142.01" fill="#4285F4"/>
<path d="M553.724 93.9835C562.114 91.8762 570.899 90.7577 579.943 90.7577C618.667 90.7577 652.603 111.265 671.481 142.01" stroke="black" stroke-width="3" stroke-miterlimit="10"/>
<path d="M479.262 235.398C474.956 223.78 472.603 211.215 472.603 198.099C472.603 159.264 493.227 125.245 524.12 106.398" fill="#4285F4"/>
<path d="M479.262 235.398C474.956 223.78 472.603 211.215 472.603 198.099C472.603 159.264 493.227 125.245 524.12 106.398" stroke="black" stroke-width="3" stroke-miterlimit="10"/>
</g>
<path d="M584.481 73.668C587.348 73.9528 599.751 72.1702 608.361 83.2554C616.507 93.7429 620.156 126.227 622.029 133.273C623.902 140.318 633.237 141.134 635.654 149.31C637.733 156.342 632.646 159.087 632.258 164.299C631.957 168.341 636.181 174.276 632.667 180.341C629.472 185.855 623.555 184.87 620.049 186.665C616.544 188.461 614.553 196.747 608.038 199.147C601.523 201.544 595.542 195.707 592.058 195.838C588.574 195.971 584.724 206.788 573.313 206.163C561.9 205.538 558.348 195.992 553.594 194.222C548.839 192.451 537.128 196.051 531.58 190.327C526.031 184.602 524.889 176.781 522.383 173.96C519.878 171.138 514.818 171.739 511.615 165.14C508.413 158.542 514.512 154.129 515.229 148.309C515.73 144.255 512.04 140.644 514.393 134.406C517.627 125.83 528.056 127.36 531.773 118.544C534.69 111.631 540.296 81.7576 558.04 73.9543C570.298 68.5622 584.481 73.668 584.481 73.668Z" fill="#263238"/>
<path d="M621.639 131.576C622.227 133.133 623.574 134.241 624.785 135.309L628.579 138.411C631.089 140.442 633.629 142.537 635.325 145.159C637.061 147.696 637.628 150.95 636.66 153.774C636.188 155.197 635.335 156.495 634.386 157.788C633.461 159.094 632.335 160.371 631.693 162.187C631.092 164.159 631.773 166.021 632.302 167.528C632.875 169.095 633.502 170.579 633.988 172.087C634.993 175.068 635.308 178.267 633.937 181.018C633.291 182.367 632.266 183.491 630.905 184.166C629.555 184.856 627.976 185.137 626.388 185.272C624.793 185.43 623.161 185.423 621.521 185.494C619.916 185.578 618.13 185.68 616.807 186.704C618.235 185.863 619.925 185.957 621.523 185.988C623.143 186.057 624.774 186.206 626.437 186.186C628.091 186.143 629.806 185.938 631.411 185.23C633.026 184.542 634.383 183.22 635.217 181.669C637.047 178.56 636.598 174.701 635.609 171.578C635.124 169.973 634.504 168.439 633.986 166.934C633.467 165.419 633.057 163.953 633.473 162.746C634.379 160.123 637.249 157.717 638.272 154.307C639.364 150.934 638.64 147.047 636.505 144.345C634.482 141.572 631.777 139.587 629.13 137.679L625.092 134.918C623.81 133.952 622.405 133.032 621.639 131.576Z" fill="#263238"/>
<path d="M541.905 91.1532C538.937 96.2324 537.161 101.862 534.863 107.2C533.712 109.869 532.651 112.578 531.32 115.115C530.64 116.353 529.952 117.641 529.08 118.626C528.876 118.903 528.655 119.13 528.423 119.285C528.205 119.468 527.995 119.663 527.654 119.821C527.051 120.162 526.409 120.469 525.758 120.77C523.173 122.011 520.415 123.132 517.847 124.711C515.3 126.259 512.84 128.411 511.611 131.309C511.006 132.731 510.655 134.327 510.826 135.901C510.979 137.479 511.605 138.907 512.277 140.21C513.709 142.766 515.064 145.335 515.229 148.304C515.508 145.339 514.244 142.452 513.106 139.822C512.532 138.498 512.046 137.161 512.002 135.81C511.937 134.462 512.309 133.14 512.914 131.914C514.18 129.483 516.27 127.568 518.725 126.166C521.166 124.726 523.862 123.692 526.558 122.455C527.226 122.13 527.896 121.795 528.556 121.406C529.17 121.057 530.026 120.382 530.435 119.782C531.472 118.547 532.132 117.212 532.831 115.888C534.138 113.213 535.245 110.49 536.198 107.715L538.992 99.3977C539.873 96.6116 540.71 93.8197 541.905 91.1532Z" fill="#263238"/>
<path d="M519.544 172.049C520.837 173.691 521.058 175.868 521.587 177.863C522.081 179.891 522.577 181.934 523.177 183.963C523.759 185.998 524.513 188.004 525.532 189.925C526.567 191.821 527.899 193.687 529.844 194.982C533.896 197.42 538.608 196.989 542.672 196.132C544.743 195.692 546.76 195.145 548.787 194.755C550.802 194.321 552.874 194.069 554.916 194.612C553.006 193.656 550.747 193.707 548.656 193.849C546.546 194.064 544.481 194.457 542.43 194.715C538.406 195.258 534.093 195.441 530.854 193.412C529.282 192.41 528.074 190.794 527.073 189.068C526.039 187.343 525.292 185.421 524.529 183.502C523.778 181.573 523.136 179.59 522.457 177.605C522.093 176.619 521.719 175.633 521.302 174.661C520.846 173.73 520.452 172.658 519.544 172.049Z" fill="#263238"/>
<path d="M540.46 189.519C507.023 227.394 466.639 305.402 475.797 320.254C485.995 336.799 532.539 283.724 532.186 280.795C531.919 278.581 546.732 231.735 558.049 197.634C569.354 163.565 548.728 180.155 540.46 189.519Z" fill="#AD6359"/>
<path d="M532.52 280.833C533.755 275.844 554.017 214.03 559.709 194.523C565.4 175.016 558.815 169.44 540.503 188.033C522.192 206.627 483.184 267.512 475.262 299.118C467.63 329.564 483.041 328.711 502.609 313.788C518.631 301.569 532.52 280.833 532.52 280.833Z" fill="#455A64"/>
<path opacity="0.1" d="M510.404 228.409L510.807 306.697C523.092 294.917 532.526 280.832 532.526 280.832C533.749 275.849 554.013 214.021 559.716 194.522C565.405 175.021 558.809 169.434 540.504 188.026C532.841 195.804 521.522 211.027 510.404 228.409Z" fill="black"/>
<path d="M654.685 317.701L515.575 319.072L522.364 271.594C522.364 271.594 516.368 260.01 516.368 249.599C516.368 234.8 552.842 179.421 555.609 176.957C566.731 167.079 586.973 166.309 592.904 175.99C620.013 220.24 628.669 247.597 635.543 278.599C635.542 278.596 647.511 293.92 654.685 317.701Z" fill="#455A64"/>
<path d="M565.619 264.896C558.816 264.847 551.956 265.064 545.17 266.181C541.796 266.738 538.459 267.47 535.115 268.286C533.448 268.693 531.783 269.035 530.107 269.367C528.388 269.708 526.552 269.998 524.821 269.843C524.665 269.829 524.635 270.098 524.789 270.123C526.458 270.389 528.056 270.638 529.754 270.644C531.367 270.65 532.999 270.455 534.608 270.207C538.034 269.68 541.444 268.972 544.868 268.405C551.774 267.262 558.677 266.119 565.62 265.551C565.939 265.525 565.94 264.898 565.619 264.896Z" fill="#263238"/>
<path d="M581.335 273.92C575.91 272.57 570.335 271.501 564.785 270.877C561.993 270.563 559.201 270.439 556.387 270.399C555.044 270.38 553.698 270.39 552.354 270.418C550.874 270.449 549.388 270.71 547.911 270.716C547.757 270.716 547.72 270.991 547.878 270.997C549.271 271.039 550.654 271.349 552.038 271.486C553.43 271.624 554.823 271.749 556.214 271.885C559.002 272.158 561.782 272.468 564.572 272.71C570.158 273.195 575.712 273.744 581.273 274.454C581.574 274.491 581.615 273.991 581.335 273.92Z" fill="#263238"/>
<path d="M560.764 209.308C560.764 209.308 587.442 186.928 603.481 188.712L614 203.807C614 203.807 614.369 214.44 615.973 211.707C619.938 204.947 628.123 177.26 614.358 165.116C601.753 153.997 574.135 153.959 555.491 157.375C537.587 160.657 527.126 170.249 531.634 182.107C536.142 193.968 560.764 209.308 560.764 209.308Z" fill="#455A64"/>
<path d="M559.417 203.792C559.417 203.792 540.386 187.881 538.961 179.188C537.535 170.495 555.22 163.669 566.483 161.321C583.917 157.689 595.448 159.673 604.308 169.508C613.168 179.343 559.417 203.792 559.417 203.792Z" fill="#37474F"/>
<path d="M582.965 183.239C582.159 185.835 568.338 202.076 556.312 200.652C552.395 200.181 554.01 178.691 554.01 178.691L553.765 177.077L550.374 154.486L577.688 139.583L581.621 137.634C581.621 137.634 582.14 143.876 582.711 151.655C582.739 152.015 582.767 152.377 582.792 152.764C582.837 153.203 582.884 153.616 582.905 154.028C583.005 155.19 583.102 156.374 583.175 157.558C583.232 158.458 583.294 159.333 583.321 160.281C583.372 161.231 583.403 162.153 583.455 163.103C583.762 172.478 583.291 182.135 582.965 183.239Z" fill="#AD6359"/>
<path d="M582.713 151.654C575.082 168.9 560.43 175.109 553.766 177.077L550.375 154.486L577.69 139.583L581.622 137.634C581.622 137.634 582.143 143.874 582.713 151.654Z" fill="#263238"/>
<path d="M525.283 113.84C513.551 152.178 535.189 163.534 543.459 166.055C550.965 168.344 576.819 175.182 592.451 138.261C608.081 101.34 593.965 83.766 577.071 77.6243C560.176 71.4796 537.014 75.5008 525.283 113.84Z" fill="#AD6359"/>
<path d="M532.467 111.461C533.409 111.68 534.317 111.724 535.272 111.842C536.349 111.978 537.195 112.195 538.207 111.686C538.75 111.413 539.018 110.561 538.805 110.008C538.301 108.721 537.022 108.228 535.732 108.013C534.33 107.779 533.191 107.958 531.959 108.66C530.767 109.342 531.223 111.172 532.467 111.461Z" fill="#263238"/>
<path d="M559.811 115.021C558.983 114.517 558.302 113.917 557.535 113.334C556.669 112.677 555.912 112.243 555.543 111.172C555.345 110.598 555.747 109.8 556.288 109.555C557.547 108.984 558.807 109.525 559.881 110.272C561.047 111.083 561.738 112.007 562.129 113.371C562.508 114.691 560.903 115.683 559.811 115.021Z" fill="#263238"/>
<path d="M551.785 123.554C551.83 123.455 551.965 123.734 551.935 123.845C551.187 126.535 550.783 129.743 553.017 131.242C553.086 131.29 553.045 131.423 552.958 131.389C550.065 130.236 550.644 125.983 551.785 123.554Z" fill="#263238"/>
<path d="M554.897 121.313C559.34 122.048 557.545 130.878 553.428 130.198C549.379 129.529 551.174 120.699 554.897 121.313Z" fill="#263238"/>
<path d="M556.536 122.133C557.206 122.79 557.783 123.824 558.694 124.105C559.749 124.431 560.749 123.671 561.633 122.924C561.725 122.847 561.785 122.939 561.763 123.057C561.444 124.754 560.441 126.358 558.575 126.241C556.873 126.135 555.99 124.395 555.913 122.608C555.899 122.278 556.266 121.869 556.536 122.133Z" fill="#263238"/>
<path d="M536.483 119.073C536.485 118.964 536.241 119.155 536.221 119.267C535.717 122.014 534.679 125.076 532.014 125.449C531.931 125.459 531.909 125.6 532.003 125.605C535.108 125.834 536.448 121.755 536.483 119.073Z" fill="#263238"/>
<path d="M534.664 115.696C530.347 114.414 528.1 123.141 532.099 124.329C536.035 125.498 538.282 116.771 534.664 115.696Z" fill="#263238"/>
<path d="M532.695 115.801C531.887 116.086 530.988 116.751 530.15 116.594C529.179 116.411 528.717 115.285 528.339 114.222C528.299 114.113 528.212 114.168 528.18 114.283C527.705 115.938 527.809 117.818 529.329 118.552C530.715 119.22 532.158 118.065 532.983 116.507C533.137 116.217 533.021 115.688 532.695 115.801Z" fill="#263238"/>
<path d="M549.91 148.511C549.153 149.06 548.362 149.852 547.347 149.789C546.373 149.728 545.312 149.126 544.481 148.655C544.399 148.608 544.297 148.688 544.341 148.779C544.902 149.945 546.313 150.832 547.625 150.796C548.907 150.763 549.685 149.774 550.157 148.674C550.225 148.521 550.021 148.431 549.91 148.511Z" fill="#263238"/>
<path d="M545.987 141.618C544.079 140.483 540.295 139.677 537.451 139.226C537.158 139.093 536.531 138.674 536.563 138.37L536.569 138.351C536.598 138.255 538.363 132.779 538.363 132.779C537.516 132.935 533.256 133.542 533.621 132.501C536.672 123.9 540.063 114.333 544.917 106.416C545.063 106.146 545.486 106.341 545.377 106.621C542.773 115.004 538.71 122.874 535.959 131.254C537.295 131.145 539.503 130.865 540.555 131.192C540.819 131.359 538.692 136.664 538.529 137.6C538.529 137.6 543.826 137.758 546.77 141.481C547.641 142.583 547.298 142.398 545.987 141.618Z" fill="#263238"/>
<path d="M541.751 138.367C543.941 138.779 548.312 141.771 549 145.489C549.604 148.748 544.175 144.624 543.041 144.692C542.095 144.748 539.562 137.957 541.751 138.367Z" fill="#263238"/>
<path d="M548.228 146.733C548.078 146.73 547.918 146.71 547.74 146.653C546.298 146.302 544.056 144.854 543.199 144.703C543.145 144.686 543.085 144.683 543.04 144.683C542.917 144.689 542.77 144.582 542.603 144.394C543.212 142.943 544.982 141.737 547.685 142.579C547.884 142.853 548.067 143.136 548.231 143.43C548.3 143.542 548.367 143.669 548.427 143.809C548.535 143.994 548.619 144.202 548.677 144.401C548.752 144.546 548.795 144.695 548.838 144.844C548.905 145.061 548.959 145.275 548.997 145.483C549.178 146.445 548.838 146.759 548.228 146.733Z" fill="#FF9ABB"/>
<path d="M561.874 79.2652C561.874 79.2652 558.614 84.7665 559.427 89.6435C561.099 99.6677 572.354 100.369 574.974 104.892C577.431 109.133 574.305 115.575 576.44 119.726C579.396 125.474 585.685 125.366 585.514 128.62C585.342 131.871 584.578 142.164 588.096 144.504C591.614 146.845 627.88 87.3017 576.689 74.8884C576.689 74.8884 570.558 70.0586 558.226 72.4344C544.614 75.0566 533.818 93.2265 533.818 93.2265C533.818 93.2265 534.147 93.0317 536.318 91.9928C539.38 90.526 540.897 88.7936 543.088 87.9023C546.531 86.5033 547.836 87.7768 551.373 86.4664C556.759 84.4699 561.874 79.2652 561.874 79.2652Z" fill="#263238"/>
<path d="M563.448 76.674C561.938 78.9848 560.674 81.4566 559.744 84.0272C558.801 86.5624 558.158 89.3204 558.659 91.8939C559.191 94.4085 561.056 96.5511 563.168 98.0888C565.321 99.6662 567.902 100.677 570.193 102.457C571.299 103.38 572.336 104.501 572.852 105.985C573.356 107.446 573.302 108.933 573.223 110.316C573.013 113.076 572.824 115.803 574.014 118.155C575.174 120.498 577.359 122.332 579.978 122.952C582.527 123.684 585.551 123.77 587.717 125.605C585.407 123.951 582.545 124.125 579.823 123.57C577.03 123.048 574.518 121.165 573.128 118.623C571.631 116.027 571.898 112.931 572.041 110.26C572.106 108.902 572.106 107.56 571.682 106.406C571.281 105.272 570.379 104.282 569.376 103.476C567.341 101.831 564.741 100.751 562.467 99.0509C561.327 98.2068 560.274 97.2019 559.427 96.0376C558.592 94.9013 557.843 93.5467 557.669 92.0784C557.246 89.1625 558.071 86.3454 559.148 83.7911C560.302 81.2411 561.764 78.8653 563.448 76.674Z" fill="#263238"/>
<path d="M561.817 78.7133C560.637 81.0006 559.123 83.1049 557.359 85.0218C555.615 86.9431 553.309 88.5353 550.678 89.1758C549.358 89.5122 547.974 89.4812 546.788 89.5432C545.647 89.617 544.365 89.9564 543.528 90.6027C542.603 91.3538 541.642 92.3573 540.469 92.9756C539.293 93.5909 537.994 93.9112 536.718 93.9407C537.955 93.6175 539.15 93.1792 540.134 92.4296C541.171 91.7405 541.917 90.7916 542.879 89.8383C543.993 88.8069 545.334 88.522 546.686 88.3243C548.032 88.2048 549.218 88.2387 550.375 87.9185C552.721 87.3312 554.802 85.9839 556.629 84.2721C558.485 82.5884 560.165 80.6715 561.817 78.7133Z" fill="#263238"/>
<path d="M583.533 136.776C583.533 136.776 594.704 126.365 599.606 130.604C604.507 134.842 594.284 151.208 587.246 152.243C580.209 153.277 579.123 146.781 579.123 146.781L583.533 136.776Z" fill="#AD6359"/>
<path d="M596.559 135.222C596.667 135.236 596.653 135.388 596.556 135.404C591.589 136.28 588.279 140.003 585.654 144.039C587.374 142.638 589.424 142.106 591.345 144.209C591.446 144.32 591.292 144.482 591.17 144.428C589.383 143.626 587.962 143.663 586.377 144.892C585.254 145.763 584.355 146.975 583.452 148.064C583.151 148.427 582.459 148.05 582.716 147.612C582.735 147.581 582.757 147.547 582.776 147.515C583.904 141.661 590.175 134.473 596.559 135.222Z" fill="#263238"/>
<path d="M559.417 203.792C559.417 203.792 581.895 171.631 607.002 170.203L603.483 188.712C603.483 188.712 588.654 187.613 560.765 209.308L559.417 203.792Z" fill="#455A64"/>
<path d="M610.156 189.567C605.649 188.653 601.052 189.314 596.68 190.334C592.28 191.37 588.071 193.089 584.029 195.096C579.955 197.05 576.106 199.451 572.318 201.928L566.789 205.89L561.438 210.108L560.838 210.581L560.235 210.213C555.751 207.465 551.51 204.428 547.459 201.112C545.443 199.448 543.451 197.749 541.647 195.85C539.832 193.97 538.084 192.006 536.672 189.814C540.069 193.765 544.163 196.946 548.305 200.014C550.385 201.539 552.537 202.97 554.711 204.36C556.881 205.746 559.07 207.14 561.288 208.403L560.086 208.508L565.455 204.142C567.301 202.757 569.185 201.415 571.071 200.082C573.034 198.857 574.971 197.591 576.978 196.439C579.028 195.356 581.038 194.202 583.183 193.306C587.382 191.337 591.852 189.925 596.416 189.087C597.552 188.857 598.715 188.749 599.863 188.609C601.023 188.553 602.18 188.467 603.34 188.503C605.652 188.522 607.994 188.776 610.156 189.567Z" fill="#263238"/>
<path d="M614.437 206.382C612.286 203.727 610.457 200.883 608.701 197.994C606.986 195.08 605.348 192.121 604.033 188.969C606.185 191.621 608.016 194.466 609.769 197.357C611.481 200.271 613.117 203.23 614.437 206.382Z" fill="#263238"/>
<path d="M570.496 196.608C570.496 196.608 572.705 206.221 573.195 220.164C573.39 225.683 571.542 245.518 565.396 244.889C559.25 244.261 569.066 231.338 570.673 220.868C572.305 210.241 569.382 202.79 568.921 196.541L570.496 196.608Z" fill="#263238"/>
<path d="M548.047 195.642C548.047 195.642 545.302 204.155 543.773 216.716C543.168 221.687 543.292 239.751 548.894 239.661C554.497 239.571 546.633 227.131 545.995 217.547C545.348 207.816 548.569 201.313 549.471 195.702L548.047 195.642Z" fill="#263238"/>
<path d="M478.81 319.904C490.658 328.06 506.955 326.79 563.212 317.464C570.996 316.174 582.772 259.796 574.411 258.66C563.281 257.15 520.689 264.815 517.775 265.699C493.199 273.148 470.774 314.372 478.81 319.904Z" fill="#AD6359"/>
<path d="M567.238 258.673C567.238 258.673 592.253 258.079 605.493 261.834C623.221 266.863 636.456 278.505 641.708 283.717C652.671 294.598 671.654 328.488 662.847 335.659C654.874 342.149 637.221 306.528 637.221 306.528C637.221 306.528 661.214 339.878 650.177 345.928C639.141 351.978 621 309.461 621 309.461C621 309.461 644.884 344.279 632.515 348.718C623.168 352.072 604.569 314.489 604.569 314.489C604.569 314.489 624.89 344.558 615.427 348.422C604.969 352.692 585.624 319.078 585.624 319.078C559.917 324.851 545.314 317.083 535.585 310.32C533.228 308.684 567.238 258.673 567.238 258.673Z" fill="#AD6359"/>
<path d="M629.661 294.463C632.621 298.279 635.643 302.12 638.254 306.185C640.864 310.251 643.336 314.411 645.557 318.7C651.003 329.223 652.768 336.665 652.609 336.216C648.847 325.627 639.726 310.929 637.114 306.863C634.51 302.806 632.108 298.617 629.503 294.557C629.437 294.455 629.59 294.371 629.661 294.463Z" fill="#263238"/>
<path d="M614.808 303.623C618.378 308.658 622.104 313.527 625.452 318.722C628.783 323.892 631.491 329.087 634.458 334.472C634.687 334.887 634.389 334.874 634.143 334.466C630.964 329.204 627.619 324.584 624.378 319.36C621.148 314.154 618.098 308.782 614.682 303.699C614.628 303.619 614.754 303.547 614.808 303.623Z" fill="#263238"/>
<path d="M600.649 309.194C606.497 316.611 610.97 325.097 615.16 333.526C615.368 333.947 614.985 333.886 614.746 333.469C610.076 325.289 606.469 318.839 600.391 309.398C600.295 309.249 600.525 309.038 600.649 309.194Z" fill="#263238"/>
<path d="M565.532 255.7L538.416 324.79C538.416 324.79 487.99 331.488 476.695 322.134C469.261 315.978 492.432 271.253 520.213 265.087L565.532 255.7Z" fill="#455A64"/>
<path d="M522.656 320.921C525.202 313.252 528.155 305.726 531.128 298.209C534.104 290.688 537.065 283.156 540.227 275.708C542.014 271.5 543.777 267.279 545.711 263.134C545.761 263.025 545.956 263.083 545.916 263.202C543.378 270.859 540.453 278.406 537.534 285.93C534.609 293.472 531.602 300.991 528.526 308.475C526.788 312.705 524.975 316.903 523.043 321.05C522.948 321.255 522.582 321.147 522.656 320.921Z" fill="#263238"/>
<path d="M564.76 257.665L566.122 255.433L566.283 255.17C559.692 255.875 553.123 256.758 546.589 257.874C535.366 259.932 523.92 261.892 513.314 266.254C505.928 269.819 499.336 275.275 494.437 281.785C500.045 275.94 506.672 271.128 514.009 267.853C518.485 266.071 523.195 264.899 527.888 263.738C538.844 261.051 554.81 257.887 566.008 255.515L565.846 255.287L564.76 257.665Z" fill="#263238"/>
<path d="M611.528 234.617C611.528 234.617 608.566 192.45 607.994 170.182C607.42 147.916 618.563 144.726 631.346 162.904C644.13 181.082 665.115 201.497 667.439 243.344C673.462 351.727 611.528 234.617 611.528 234.617Z" fill="#DBDBDB"/>
<path d="M580.523 105.311L556.749 164.309C555.85 166.012 556.551 167.592 558.313 167.834L584.826 177.631C586.588 177.872 588.748 176.684 589.646 174.981L613.42 115.983C614.32 114.275 613.618 112.698 611.857 112.457L585.344 102.66C583.582 102.418 581.423 103.603 580.523 105.311Z" fill="#A6A6A6"/>
<path d="M582.818 106.019L559.043 165.017C558.145 166.72 558.846 168.302 560.607 168.543L587.121 178.338C588.881 178.58 591.042 177.391 591.94 175.688L615.715 116.689C616.615 114.982 615.912 113.405 614.152 113.164L587.639 103.369C585.877 103.127 583.718 104.312 582.818 106.019Z" fill="#DBDBDB"/>
<path d="M591.081 109.996C590.847 111.47 589.46 112.475 587.985 112.24C586.511 112.004 585.505 110.619 585.741 109.143C585.976 107.669 587.363 106.664 588.838 106.898C590.311 107.135 591.316 108.522 591.081 109.996Z" fill="#263238"/>
<path d="M630.672 288.97C641.55 305.48 665.415 293.387 668.078 280.875C674.331 251.509 664.68 204.472 657.097 178.408C654.656 170.02 597.405 183.611 598.569 192.878C599.966 204 609.346 256.603 630.672 288.97Z" fill="#AD6359"/>
<path d="M654.07 197.386C654.07 197.386 659.765 179.966 656.567 160.506C654.355 147.05 646.277 118.31 608.327 103.587C599.326 100.094 584.023 101.502 596.653 112.544C605.624 120.389 613.684 122.653 618.071 128.164C618.071 128.164 598.82 132.265 595.672 141.419C594.266 145.509 590.69 156.766 589.154 165.925C589.154 165.925 591.059 166.796 593.631 167.556C593.631 167.556 592.01 180.724 598.567 192.875L654.07 197.386Z" fill="#AD6359"/>
<path d="M652.404 148C646.892 143.449 635.049 134 622.672 129.64C608.925 124.797 581.137 119.173 577.668 129.358C575.124 136.826 585.543 139.906 585.543 139.906C585.543 139.906 573.568 140.002 572.745 147.252C571.995 153.857 580.198 155.758 580.198 155.758C580.198 155.758 572.944 157.065 573.447 163.567C574.052 171.388 589.157 167.365 596.614 174.757C598.287 176.415 652.404 148 652.404 148Z" fill="#AD6359"/>
<path d="M619.976 145.019C614.091 141.59 598.727 137.229 585.767 139.704C585.474 139.76 585.359 140.012 585.638 140.018C600.484 140.324 614.193 143.467 619.931 145.149C620.009 145.171 620.043 145.058 619.976 145.019Z" fill="#263238"/>
<path d="M614.685 158.753C609.303 156.315 593.265 152.529 580.219 155.488C579.928 155.554 579.829 155.814 580.108 155.808C595.634 155.488 608.819 157.548 614.646 158.885C614.724 158.904 614.754 158.786 614.685 158.753Z" fill="#263238"/>
<path d="M630.183 293.239C641.888 309.356 666.86 297.023 669.925 284.317C677.118 254.497 667.832 207.12 660.319 180.91L596.18 198.992C597.44 210.213 607.948 262.624 630.183 293.239Z" fill="#455A64"/>
<path d="M599.348 198.097L596.205 199.076L596.268 198.975C598.311 209.242 600.787 219.415 603.604 229.477C609.334 249.065 620.487 286.348 637.646 297.793C641.964 300.598 647.286 301.316 652.299 299.961C647.431 302.288 641.459 302.087 636.669 299.524C617.282 289.063 607.585 250.261 602.11 229.867C599.683 219.632 597.562 209.326 596.081 198.921L596.156 198.902L599.348 198.097Z" fill="#263238"/>
<path d="M631.699 208.039C626.984 209.461 608.311 215.45 603.892 217.508C603.76 217.569 603.872 217.821 603.996 217.802C608.837 217.06 627.775 211.598 632.483 210.156C641.887 207.277 651.405 204.543 660.516 200.678C660.703 200.599 660.622 200.23 660.414 200.268C650.686 202.117 641.182 205.178 631.699 208.039Z" fill="#263238"/>
<path d="M325.25 424.159C390.189 485.537 449.822 552.606 452.894 586.521C457.149 633.477 434.492 647.187 421.355 647.158C385.585 647.079 321.177 502.721 301.613 448.035C282.615 394.934 310.989 410.68 325.25 424.159Z" fill="#064CC1"/>
<path opacity="0.1" d="M409.736 642.986C373.055 618.869 319.202 497.199 301.623 448.042C295.79 431.736 294.414 421.905 295.745 416.544L409.736 642.986Z" fill="black"/>
<path d="M125.691 688.312H372.571C376.04 684.638 331.431 464.754 316.663 423.019C307.134 396.094 263.362 389.779 243.182 410.333C164.655 490.321 123.618 685.773 125.691 688.312Z" fill="#064CC1"/>
<path d="M403.122 639.341C383.293 624.313 393.145 577.508 404.317 500.531C406.277 487.023 497.268 453.585 499.149 468.058C501.519 486.288 487.108 572.207 478.847 593.171C462.559 634.496 426.275 656.89 403.122 639.341Z" fill="#EB9481"/>
<path d="M483.591 541.403C501.199 522.759 524.331 494.97 524.432 483.243C524.536 470.934 523.171 427.648 519.611 417.692C516.048 407.736 496.887 382.027 488.071 378.612C481.012 375.878 477.191 384.612 485.35 400.526C494.474 418.321 491.641 425.475 492.041 431.163C492.457 437.071 482.487 462.118 474.182 464.215C469.289 465.45 459.142 465.355 456.871 456.532C454.6 447.707 456.952 439.728 453.585 424.334C450.967 412.366 440.996 404.892 436.867 406.967C432.738 409.042 436.123 416.218 433.34 434.132C431.605 445.305 429.923 453.321 416.531 469.606C404.81 483.859 404.013 503.655 404.013 503.655L483.591 541.403Z" fill="#EB9481"/>
<path d="M525.352 455.662C524.893 448.916 529.574 428.498 528.02 419.582C526.466 410.665 516.135 377.855 506.175 375.144C493.657 371.737 497.279 398.404 499.905 409.839C502.531 421.274 495.129 441.853 495.129 441.853L512.353 449.251L525.352 455.662Z" fill="#EB9481"/>
<path d="M492.607 446.54C495.703 436.185 499.567 425.667 499.745 414.773C499.245 406.979 497.715 399.295 497.381 391.427C497.301 386.77 497.028 381.667 499.425 377.464C500.247 376.079 501.709 375.075 503.278 374.913C501.73 375.245 500.461 376.309 499.761 377.662C497.79 381.899 498.24 386.792 498.513 391.356C499.021 397.567 500.02 403.738 500.797 409.985C502.36 422.652 497.179 435.002 492.607 446.54Z" fill="#263238"/>
<path d="M524.744 461.53C526.176 454.966 536.274 436.861 537.264 427.911C538.254 418.96 537.512 384.687 528.795 379.214C517.838 372.335 513.904 398.805 513.237 410.466C512.569 422.128 499.84 439.598 499.84 439.598L514.165 451.646L524.744 461.53Z" fill="#EB9481"/>
<path d="M496.145 443.335C501.963 434.345 508.565 425.408 511.725 415.083C513.392 407.523 514.068 399.788 515.923 392.207C517.136 387.752 518.278 382.815 521.725 379.481C522.891 378.388 524.573 377.854 526.106 378.155C524.542 378.022 523.031 378.67 521.994 379.766C518.947 383.252 518.032 388.037 517.031 392.457C515.8 398.51 515.045 404.659 514.061 410.82C512.064 423.313 503.71 433.635 496.145 443.335Z" fill="#263238"/>
<path d="M498.435 459.17C492.421 464.341 484.41 466.588 476.766 468.118C474.159 468.588 471.495 468.772 468.908 468.932C461.123 469.343 453.443 470.936 446.502 474.532C444.142 475.633 441.94 477.03 439.702 478.388C447.828 471.654 458.282 467.891 468.803 467.474C479.049 466.776 489.691 464.81 498.435 459.17Z" fill="#263238"/>
<path d="M521.777 491.382C524.594 485.449 534.19 462.101 534.773 452.198C535.356 442.294 532.536 404.537 522.504 398.817C509.896 391.631 507.053 420.956 506.986 433.836C506.921 446.717 495.379 460.324 495.379 460.324L513.754 476.708L521.777 491.382Z" fill="#EB9481"/>
<path d="M508.714 413.653C508.93 417.902 508.685 422.261 508.472 426.5C508.27 430.519 508.367 434.715 507.562 438.658C506.753 442.616 505.025 446.236 502.98 449.685C501.973 451.382 500.871 452.994 499.716 454.594C498.457 456.337 497.018 457.97 495.793 459.732C495.663 459.918 495.352 459.737 495.48 459.543C497.635 456.313 499.418 452.674 501.122 449.189C502.896 445.56 504.256 441.638 505.072 437.671C506.707 429.734 506.603 421.521 508.162 413.571C508.224 413.247 508.698 413.352 508.714 413.653Z" fill="#263238"/>
<path d="M507.562 438.658C507.599 426.359 506.074 413.119 511.668 401.708C515.017 395.442 521.846 395.725 525.513 401.553C531.274 410.72 532.676 421.827 533.777 432.344C532.021 423.267 529.049 403.895 520.8 399.003C506.968 394.459 508.477 430.485 507.562 438.658Z" fill="#263238"/>
<path d="M498.631 530.082L393.248 543.246C393.248 543.246 377.307 631.036 408.604 643.136C439.901 655.237 465.77 628.628 478.845 593.171C491.923 557.712 498.631 530.082 498.631 530.082Z" fill="#064CC1"/>
<path d="M389.636 602.159C389.234 592.3 389.313 582.435 389.65 572.576C390.199 562.751 390.307 552.703 393.067 543.184L393.102 543.076L393.208 543.057L398.686 542.061L393.291 543.435L393.433 543.308C391.266 552.867 391.3 562.847 390.72 572.617C390.44 579.968 389.894 594.806 389.636 602.159Z" fill="#263238"/>
<path d="M400.013 567.658C414.746 564.991 454.925 559.009 481.578 558.814C481.738 558.813 481.826 559.469 481.67 559.496C459.588 563.269 415.06 567.36 400.142 568.633C399.862 568.658 399.735 567.709 400.013 567.658Z" fill="#263238"/>
<path d="M211.419 587.858C213.355 579.221 245.859 472.016 254.908 438.211C263.03 407.869 256.606 396.173 233.486 416.391C190.914 453.613 109.466 563.871 97.0429 618.592C85.0753 671.305 128.072 672.194 161.19 645.747C188.305 624.095 211.419 587.858 211.419 587.858Z" fill="#4285F4"/>
<path d="M207.282 601.712C217.131 560.989 228.926 520.745 242.664 481.165C232.832 521.89 221.006 562.127 207.282 601.712Z" fill="#263238"/>
<path d="M236.229 504.609C238.034 499.311 240.8 494.596 244.079 490.087C242.651 495.461 239.773 500.335 236.229 504.609Z" fill="#263238"/>
<path d="M112.894 653.811C130.304 670.333 167.737 666.518 262.891 665.76C276.058 665.655 300.315 572.533 286.249 571.922C268.531 571.154 199.607 572.008 194.574 572.706C152.129 578.603 101.086 642.604 112.894 653.811Z" fill="#EB9481"/>
<path d="M271.707 576.001C271.707 576.001 306.884 563.527 327.394 562.694C354.857 561.578 379.027 571.924 388.895 576.87C409.492 587.196 452.154 626.401 443.006 640.657C434.725 653.563 393.14 611.286 393.14 611.286C393.14 611.286 442.652 647.395 429.824 661.101C416.996 674.807 371.516 622.983 371.516 622.983C371.516 622.983 421.554 661.225 406.089 673.267C394.404 682.367 350.568 637.75 350.568 637.75C350.568 637.75 393.35 670.917 381.734 680.794C368.898 691.708 325.852 653.062 325.852 653.062C292.1 673.196 267.793 668.977 250.86 663.917C246.759 662.693 271.707 576.001 271.707 576.001Z" fill="#EB9481"/>
<path d="M376.818 597.701C382.787 601.731 388.857 605.771 394.446 610.319C400.038 614.867 405.474 619.614 410.615 624.661C423.226 637.042 429.188 646.768 428.754 646.207C418.5 632.948 398.739 616.358 393.145 611.808C387.565 607.27 382.215 602.45 376.635 597.906C376.496 597.794 376.676 597.605 376.818 597.701Z" fill="#263238"/>
<path d="M360.03 617.588C367.429 623.066 374.975 628.232 382.135 634.037C389.26 639.815 395.513 645.92 402.222 652.172C402.738 652.653 402.309 652.774 401.772 652.311C394.82 646.331 387.93 641.339 380.909 635.441C373.911 629.565 367.089 623.37 359.885 617.754C359.771 617.666 359.916 617.507 360.03 617.588Z" fill="#263238"/>
<path d="M342.55 632.068C354.288 639.859 364.573 649.806 374.428 659.806C374.918 660.303 374.348 660.396 373.817 659.916C363.394 650.496 355.284 643.032 342.277 632.475C342.075 632.311 342.302 631.904 342.55 632.068Z" fill="#263238"/>
<path d="M268.668 561.76L208.309 687.555C208.309 687.555 113.496 673.249 100.903 654.562C91.9017 641.205 146.027 580.368 192.828 572.319L268.668 561.76Z" fill="#064CC1"/>
<path d="M141.043 601.386C146.594 593.84 165.893 577.279 192.868 572.234C193.105 572.19 193.229 572.557 192.993 572.625C173.265 578.328 147.28 594.845 141.319 601.653C141.161 601.831 140.904 601.574 141.043 601.386Z" fill="#263238"/>
<path d="M192.545 665.752C197.404 653.174 202.929 640.868 208.488 628.578C214.051 616.279 219.591 603.965 225.461 591.804C228.777 584.935 232.054 578.041 235.609 571.286C235.702 571.109 236.021 571.22 235.945 571.415C231.099 583.974 225.619 596.317 220.151 608.624C214.669 620.96 209.055 633.249 203.327 645.477C200.091 652.386 196.731 659.237 193.178 665.994C193.002 666.331 192.402 666.121 192.545 665.752Z" fill="#263238"/>
<path d="M268.448 560.589C263.188 560.535 257.996 561.284 252.778 561.937C247.566 562.587 242.365 563.328 237.172 564.116C226.844 565.683 204.778 567.826 186.652 573.68C186.452 573.745 187.79 574.39 187.986 574.314C196.474 571.086 262.314 563.597 267.513 562.334C267.42 562.728 267.333 563.125 267.297 563.542C267.272 563.825 267.626 564.07 267.837 563.803C268.338 563.172 268.62 562.491 269.068 561.829C269.437 561.284 269.129 560.597 268.448 560.589Z" fill="#263238"/>
<path d="M218.958 666.3C215.758 673.835 212.369 681.279 208.922 688.7C201.25 687.51 193.618 686.148 186.005 684.662C164.197 680.173 141.682 675.38 121.065 666.864C128.258 668.955 135.531 670.64 142.806 672.319C157.393 675.76 193.343 683.261 208.495 686.537L207.384 687.092C211.143 680.108 214.967 673.159 218.958 666.3Z" fill="#263238"/>
<path d="M299.613 452.351C287.026 451.522 259.835 429.584 256.621 410.243C256.409 408.916 262.215 397.781 268.63 383.914C272.49 375.485 276.59 366.009 279.706 357.091C280.336 355.257 330.888 390.224 330.888 390.224C330.888 390.224 318.857 406.996 313.52 422.578C313.089 423.884 312.794 425.138 312.625 426.37C312.586 426.546 312.563 426.766 312.494 427.005C311.198 434.352 313.081 453.238 299.613 452.351Z" fill="#EB9481"/>
<path d="M312.643 426.372C312.587 426.553 312.556 426.782 312.487 426.999C310.657 426.626 308.727 426.062 306.659 425.298C273.993 413.067 279.705 368.826 281.679 357.796C291.121 362.693 330.893 390.22 330.893 390.22C330.893 390.22 318.851 407.008 313.508 422.588C313.101 423.893 312.788 425.146 312.643 426.372Z" fill="#263238"/>
<path d="M335.815 339.646C335.017 354.808 345.155 367.669 358.456 368.368C371.76 369.068 383.19 357.343 383.988 342.181C384.787 327.019 374.649 314.16 361.347 313.459C348.044 312.759 336.614 324.483 335.815 339.646Z" fill="#455A64"/>
<path d="M327.959 340.193C327.071 357.062 338.348 371.367 353.147 372.146C367.946 372.925 380.662 359.882 381.55 343.013C382.439 326.145 371.162 311.84 356.362 311.061C341.563 310.282 328.847 323.323 327.959 340.193Z" fill="#C7C7C7"/>
<path d="M358.809 282.713C358.809 282.713 376.755 293.604 376.786 312.622C376.815 331.64 368.636 350.157 366.751 350.803C364.868 351.448 358.809 282.713 358.809 282.713Z" fill="#263238"/>
<path d="M276.95 290.674C266.931 310.221 267.137 371.916 279.455 387.872C297.315 411.003 331.892 419.11 352.892 396.422C373.25 374.432 371.559 294.035 357.301 278.984C336.302 256.818 291.749 261.802 276.95 290.674Z" fill="#EB9481"/>
<path d="M329.892 339.267C329.86 339.109 329.566 339.463 329.572 339.634C329.697 343.789 329.141 348.571 325.378 349.943C325.261 349.986 325.273 350.195 325.413 350.176C330.003 349.537 330.677 343.184 329.892 339.267Z" fill="#263238"/>
<path d="M326.188 334.922C319.505 334.406 318.96 347.808 325.152 348.289C331.245 348.76 331.79 335.356 326.188 334.922Z" fill="#263238"/>
<path d="M352.819 340.086C352.856 339.928 353.135 340.295 353.123 340.465C352.824 344.611 353.178 349.41 356.877 350.942C356.993 350.989 356.973 351.197 356.835 351.172C352.276 350.341 351.871 343.965 352.819 340.086Z" fill="#263238"/>
<path d="M356.702 335.901C363.401 335.664 363.379 349.08 357.174 349.297C351.066 349.512 351.087 336.095 356.702 335.901Z" fill="#263238"/>
<path d="M321.147 328.578C322.99 328.193 324.628 327.531 326.412 326.961C328.425 326.319 330.094 326.015 331.468 324.287C332.204 323.362 331.983 321.637 331.151 320.838C329.213 318.976 326.551 319.15 324.096 319.826C321.432 320.56 319.565 321.805 317.966 324.051C316.415 326.228 318.715 329.087 321.147 328.578Z" fill="#263238"/>
<path d="M362.159 329.36C360.313 328.981 358.673 328.326 356.888 327.762C354.872 327.128 353.202 326.83 351.823 325.108C351.083 324.184 351.298 322.46 352.127 321.658C354.059 319.788 356.721 319.955 359.178 320.62C361.845 321.342 363.716 322.581 365.324 324.823C366.884 326.992 364.594 329.859 362.159 329.36Z" fill="#263238"/>
<path d="M323.219 378.183C324.174 379.195 325.112 380.573 326.613 380.761C328.053 380.941 329.773 380.358 331.118 379.897C331.251 379.853 331.38 379.998 331.29 380.119C330.147 381.668 327.838 382.576 325.928 382.16C324.062 381.754 323.198 380.094 322.813 378.355C322.759 378.11 323.08 378.035 323.219 378.183Z" fill="#263238"/>
<path d="M328.276 364.558C330.454 368.256 333.789 370.365 337.456 371.231C339.093 371.629 340.825 371.756 342.533 371.671C342.868 371.677 343.204 371.654 343.509 371.598C343.813 371.575 344.089 371.551 344.424 371.496C344.913 371.445 345.195 371.057 345.295 370.601L345.296 370.57C345.299 370.418 345.302 370.295 345.274 370.143C345.274 370.143 345.274 370.143 345.276 370.112L345.282 369.748C345.499 366.555 345.387 361.68 345.387 361.68C346.53 362.312 352.377 365.234 352.35 363.559C352.086 349.699 351.792 334.286 348.602 320.551C348.521 320.093 347.818 320.17 347.839 320.626C347.566 333.957 349.638 347.244 349.577 360.639C347.706 359.84 344.66 358.376 342.986 358.342C342.528 358.455 343.372 367.759 343.161 369.186C343.161 369.186 343.16 369.246 343.127 369.336C337.728 369.805 333.745 368.018 328.678 364.199C328.381 363.951 328.04 364.217 328.276 364.558Z" fill="#263238"/>
<path d="M340.331 369.763C340.331 369.763 337.558 373.263 333.879 374.439C332.523 374.877 331.074 375.022 329.573 374.569C326.492 373.651 326.505 370.797 327.155 368.375C327.681 366.382 328.667 364.683 328.667 364.683C328.667 364.683 333.069 369.078 340.331 369.763Z" fill="#263238"/>
<path d="M333.879 374.439C332.523 374.877 331.074 375.022 329.573 374.569C326.492 373.651 326.505 370.797 327.155 368.375C330.475 368.824 333.701 371.191 333.879 374.439Z" fill="#FF9ABB"/>
<path d="M271.314 349.39C278.574 351.487 286.533 329.623 288.745 321.23C290.696 313.832 292.699 290.438 293.026 288.84C293.352 287.242 324.866 308.989 342.993 303.367C361.119 297.744 373.021 281.198 373.147 273.567C373.271 265.936 350.34 246.942 330.757 246.273C311.173 245.605 285.095 270.909 285.095 270.909C285.095 270.909 293.915 260.018 293.597 259.141C293.276 258.265 280.717 263.524 278.539 272.568C278.539 272.568 280.854 261.223 279.895 261.027C278.937 260.831 269.27 270.676 271.608 277.978C271.608 277.978 260.406 288.009 259.532 298.816C258.656 309.625 262.782 346.925 271.314 349.39Z" fill="#263238"/>
<path d="M355.871 299.348C350.376 301.987 344.874 304.879 338.767 305.788C332.166 306.771 325.275 305.222 319.078 302.964C312.74 300.654 306.96 297.25 301.689 293.055C297.073 289.38 292.958 284.922 288.041 281.661C286.812 280.845 285.43 282.62 286.196 283.729C293.765 294.687 306.982 303.724 319.644 307.51C332.963 311.493 345.37 308.332 355.942 299.492C356.005 299.44 355.963 299.306 355.871 299.348Z" fill="#263238"/>
<path d="M283.208 342.743C283.208 342.743 272.731 321.21 263.169 324.647C253.606 328.084 259.339 357.798 269.053 363.28C278.769 368.762 284.02 359.868 284.02 359.868L283.208 342.743Z" fill="#EB9481"/>
<path d="M265.023 333.125C264.86 333.084 264.79 333.311 264.926 333.393C271.701 337.475 274.447 344.793 276.011 352.177C274.283 349.155 271.584 347.223 267.588 349.215C267.379 349.32 267.513 349.645 267.722 349.633C270.789 349.469 272.847 350.322 274.474 353.015C275.626 354.922 276.258 357.203 276.966 359.306C277.202 360.007 278.427 359.846 278.297 359.061C278.287 359.004 278.275 358.943 278.265 358.884C279.911 349.683 274.786 335.625 265.023 333.125Z" fill="#263238"/>
<path d="M270.216 322.173C270.216 322.173 270.066 288.744 279.017 270.077C283.41 260.915 292.981 257.066 304.003 256.048C304.003 256.048 298.139 259.063 291.19 272.356C284.055 286.004 281.278 323.139 281.278 323.139L270.216 322.173Z" fill="#C7C7C7"/>
<path d="M301.139 339.156C301.183 356.048 289.204 369.771 274.385 369.81C259.566 369.848 247.516 356.185 247.473 339.295C247.431 322.403 259.409 308.679 274.227 308.641C289.046 308.602 301.095 322.264 301.139 339.156Z" fill="#C7C7C7"/>
<path d="M293.319 338.217C293.358 353.402 282.591 365.738 269.27 365.772C255.95 365.806 245.12 353.526 245.08 338.341C245.041 323.158 255.808 310.822 269.129 310.786C282.45 310.752 293.281 323.034 293.319 338.217Z" fill="#455A64"/>
<path d="M280.189 338.526C280.212 347.856 273.596 355.438 265.41 355.459C257.225 355.48 250.569 347.933 250.544 338.603C250.521 329.272 257.136 321.691 265.323 321.671C273.51 321.65 280.165 329.197 280.189 338.526Z" fill="#37474F"/>
<path d="M318.898 388.166L299.588 382.616L282.54 366.174L285.076 363.544L301.471 379.356L319.906 384.654L318.898 388.166Z" fill="#C7C7C7"/>
<path d="M316.57 385.496C317.678 379.943 332.869 379.998 331.191 388.414C329.507 396.85 315.459 391.07 316.57 385.496Z" fill="#37474F"/>
<path d="M313.199 424.372L304.936 450.47L263.387 394.086L247.794 409.994L295.269 477.698L305.855 456.169L318.611 470.094L319.078 437.555L313.199 424.372Z" fill="#EBEBEB"/>
<path d="M247.794 409.994C264.286 433.316 278.399 456.816 295.562 479.645L296.15 478.02L306.64 456.456L305.237 456.734L318.14 470.522L319.236 471.694C319.317 460.317 319.174 448.933 319.077 437.555C318.673 448.398 318.224 459.239 317.973 470.084L319.078 469.663L306.472 455.603L305.552 454.579L305.068 455.881L294.388 477.375L296.018 477.135C279.243 454.737 265.208 431.903 247.794 409.994Z" fill="#263238"/>
<path d="M204.575 351.115C210.475 315.269 186.198 281.427 150.352 275.527C114.506 269.627 80.6635 293.903 74.7636 329.75C68.8636 365.596 93.1401 399.438 128.987 405.338C164.833 411.238 198.675 386.962 204.575 351.115Z" fill="#4285F4"/>
<g opacity="0.1">
<path d="M155.482 392.693C150.48 394.204 145.175 395.016 139.679 395.016C127.394 395.016 116.057 390.956 106.936 384.106C93.6798 374.15 85.1047 358.297 85.1047 340.441C85.1047 319.903 96.4496 302.015 113.216 292.701" stroke="black" stroke-width="3" stroke-miterlimit="10"/>
<path d="M192.614 327.112C193.685 331.378 194.254 335.843 194.254 340.443C194.254 360.131 183.828 377.384 168.195 386.984" stroke="black" stroke-width="3" stroke-miterlimit="10"/>
<path d="M120.715 289.253C126.623 287.065 133.011 285.868 139.679 285.868C159.424 285.868 176.72 296.354 186.301 312.06" stroke="black" stroke-width="3" stroke-miterlimit="10"/>
</g>
<path d="M152.731 381.736C151.642 382.818 150.298 383.408 148.849 383.773C147.928 384.004 146.984 384.133 146.048 384.307H142.847C141.536 384.103 140.215 383.945 138.913 383.687C134.05 382.722 129.662 380.619 125.576 377.888C114.913 370.769 106.155 361.787 99.4615 350.84C97.2583 347.238 95.6971 343.357 94.9519 339.178C94.7585 338.092 94.6125 336.996 94.4427 335.904V332.703C94.7069 331.474 94.9194 330.231 95.2514 329.02C95.5598 327.9 96.1368 326.898 97.0015 326.018C97.1535 326.154 97.3011 326.273 97.4369 326.408C102.528 331.494 107.615 336.585 112.716 341.662C113.08 342.025 113.145 342.32 113.014 342.818C112.298 345.534 112.776 348.003 114.662 350.147C119.011 355.09 123.648 359.744 128.591 364.092C130.756 365.994 133.248 366.45 135.989 365.725C136.353 365.629 136.619 365.567 136.936 365.886C142.139 371.111 147.357 376.323 152.571 381.54C152.618 381.586 152.655 381.642 152.731 381.736Z" fill="white"/>
<path d="M162.719 370.306V371.373C162.224 372.012 161.782 372.702 161.224 373.279C159.651 374.908 158.029 376.493 156.425 378.093C156.254 378.264 156.077 378.425 155.937 378.558C150.677 373.303 145.451 368.077 140.228 362.859C142.282 360.832 144.336 358.75 146.457 356.734C147.429 355.809 148.803 355.925 149.814 356.91C150.993 358.056 152.144 359.229 153.307 360.392C156.04 363.125 158.785 365.846 161.494 368.603C161.978 369.096 162.314 369.735 162.719 370.306Z" fill="white"/>
<path d="M121.561 332.783C119.615 334.66 117.631 336.5 115.704 338.319C110.674 333.292 105.448 328.069 100.117 322.744C100.463 322.432 100.856 322.111 101.216 321.753C102.649 320.331 104.055 318.876 105.512 317.477C106.075 316.937 106.751 316.513 107.377 316.035H108.444C109.013 316.441 109.651 316.776 110.141 317.262C113.96 321.042 117.749 324.852 121.549 328.652C122.989 330.089 123.015 331.379 121.561 332.783Z" fill="white"/>
<path d="M139.527 344.848C139.527 345.624 138.925 346.226 138.148 346.226H129.271C129.271 346.226 129.271 346.226 129.246 346.226H129.221C128.845 346.226 128.444 346.075 128.194 345.774C127.667 345.197 127.718 344.346 128.269 343.819L135.691 337.1C136.418 336.448 136.744 335.595 136.744 334.694C136.744 333.891 136.468 333.14 135.918 332.513C135.266 331.785 134.388 331.459 133.511 331.459C132.733 331.459 131.956 331.735 131.33 332.287L130.552 332.989C129.975 333.516 129.124 333.466 128.597 332.889C128.095 332.312 128.12 331.459 128.697 330.934L129.474 330.231C130.602 329.178 132.081 328.677 133.511 328.677C135.14 328.677 136.796 329.355 137.973 330.658C139.027 331.787 139.529 333.265 139.529 334.695C139.529 336.326 138.851 337.978 137.548 339.157L132.81 343.446H138.15C138.925 343.444 139.527 344.07 139.527 344.848Z" fill="white"/>
<path d="M155.655 341.563C155.655 342.34 155.028 342.942 154.251 342.942H154.001V344.848C154.001 345.624 153.399 346.226 152.621 346.226C151.845 346.226 151.243 345.624 151.243 344.848V342.942H143.395H143.37H143.345C143.044 342.942 142.743 342.867 142.492 342.641C141.865 342.165 141.789 341.312 142.266 340.71L151.544 329.176C151.569 329.176 151.569 329.151 151.594 329.126C151.619 329.101 151.644 329.076 151.669 329.026C151.744 329 151.769 328.975 151.794 328.95C151.82 328.925 151.87 328.902 151.895 328.875C151.945 328.85 151.97 328.825 152.045 328.825C152.07 328.775 152.096 328.75 152.146 328.75C152.171 328.724 152.221 328.724 152.296 328.699C152.321 328.699 152.371 328.699 152.397 328.674C152.447 328.674 152.522 328.674 152.572 328.674C152.572 328.674 152.597 328.674 152.622 328.674C152.647 328.674 152.647 328.674 152.674 328.674C152.723 328.674 152.799 328.674 152.823 328.674C152.873 328.699 152.898 328.699 152.948 328.699C152.974 328.724 153.049 328.724 153.099 328.75C153.124 328.75 153.174 328.775 153.199 328.775C153.249 328.825 153.3 328.85 153.325 328.875C153.375 328.9 153.4 328.925 153.45 328.95C153.45 328.95 153.475 328.95 153.475 328.975C153.5 328.975 153.551 329 153.551 329.026C153.601 329.076 153.626 329.101 153.651 329.126C153.676 329.151 153.701 329.201 153.726 329.226C153.751 329.251 153.778 329.276 153.826 329.352C153.826 329.377 153.852 329.427 153.878 329.452C153.903 329.502 153.903 329.527 153.928 329.602C153.928 329.628 153.953 329.678 153.953 329.703C153.978 329.753 153.978 329.778 153.978 329.853C153.978 329.905 154.004 329.929 154.004 329.979C154.004 330.004 154.004 330.029 154.004 330.054V340.183H154.254C155.028 340.183 155.655 340.81 155.655 341.563ZM151.241 333.991L146.252 340.184H151.241V333.991Z" fill="white"/>
<path d="M158.895 344.321L165.037 329.704C165.338 329.002 166.141 328.676 166.867 328.977C167.544 329.253 167.87 330.081 167.569 330.756L161.426 345.399C161.2 345.926 160.673 346.227 160.147 346.227C159.996 346.227 159.797 346.202 159.645 346.127C158.919 345.851 158.594 345.023 158.895 344.321Z" fill="white"/>
<path d="M179.96 330.581L173.692 345.398C173.491 345.925 172.989 346.226 172.414 346.226C172.263 346.226 172.063 346.201 171.887 346.125C171.185 345.799 170.86 344.997 171.136 344.321L176.552 331.457H170.082C169.331 331.457 168.704 330.807 168.704 330.054C168.704 329.278 169.331 328.676 170.082 328.676H178.683C178.758 328.676 178.833 328.676 178.933 328.701C179.109 328.726 179.285 328.826 179.46 328.902C179.485 328.927 179.51 328.95 179.535 328.977C179.586 329.002 179.611 329.027 179.636 329.077C179.661 329.127 179.711 329.152 179.736 329.178C179.761 329.228 179.786 329.253 179.811 329.278C179.836 329.303 179.863 329.378 179.863 329.403C179.888 329.452 179.913 329.479 179.963 329.529C179.963 329.554 179.988 329.629 179.988 329.654C180.014 329.704 180.014 329.729 180.039 329.78C180.064 329.955 180.064 330.156 180.039 330.331C180.009 330.43 179.984 330.506 179.96 330.581Z" fill="white"/>
<path d="M208.12 268.793C244.45 268.793 273.901 239.342 273.901 203.013C273.901 166.683 244.45 137.232 208.12 137.232C171.791 137.232 142.34 166.683 142.34 203.013C142.34 239.342 171.791 268.793 208.12 268.793Z" fill="#4285F4"/>
<g opacity="0.1">
<path d="M192.319 150.761C197.322 149.25 202.627 148.438 208.122 148.438C220.407 148.438 231.744 152.498 240.865 159.348C254.121 169.304 262.696 185.157 262.696 203.013C262.696 223.551 251.351 241.439 234.585 250.753" stroke="black" stroke-width="3" stroke-miterlimit="10"/>
<path d="M155.187 216.342C154.116 212.076 153.547 207.611 153.547 203.011C153.547 183.323 163.973 166.07 179.606 156.47" stroke="black" stroke-width="3" stroke-miterlimit="10"/>
<path d="M227.084 254.202C221.177 256.39 214.789 257.587 208.12 257.587C188.376 257.587 171.08 247.101 161.498 231.396" stroke="black" stroke-width="3" stroke-miterlimit="10"/>
</g>
<path d="M247.184 216.708L243.519 210.354L241.574 211.477C241.001 211.808 240.299 211.775 239.745 211.415C239.44 211.216 239.123 211.033 238.795 210.866C238.208 210.568 237.83 209.975 237.83 209.315V207.069H230.491V209.315C230.491 209.973 230.114 210.567 229.526 210.866C229.199 211.033 228.882 211.216 228.576 211.415C228.023 211.775 227.319 211.808 226.748 211.477L224.803 210.354L221.136 216.708L223.09 217.833C223.662 218.163 223.978 218.791 223.944 219.452C223.935 219.63 223.931 219.81 223.931 219.992C223.931 220.172 223.935 220.353 223.944 220.532C223.978 221.189 223.665 221.814 223.095 222.143L221.137 223.275L224.804 229.629L226.755 228.505C227.328 228.174 228.032 228.207 228.585 228.568C228.889 228.768 229.205 228.95 229.531 229.116C230.117 229.414 230.494 230.007 230.494 230.665V232.911H237.833V230.665C237.833 230.007 238.209 229.414 238.796 229.116C239.123 228.949 239.438 228.768 239.742 228.568C240.296 228.207 241 228.174 241.572 228.505L243.523 229.629L247.189 223.275L245.238 222.149C244.667 221.82 244.354 221.193 244.386 220.535C244.395 220.355 244.4 220.173 244.4 219.99C244.4 219.81 244.395 219.629 244.386 219.45C244.352 218.791 244.667 218.162 245.241 217.831L247.184 216.708ZM240.17 219.992C240.17 223.311 237.482 225.998 234.163 225.998C230.844 225.998 228.15 223.309 228.15 219.992C228.15 216.673 230.844 213.98 234.163 213.98C237.482 213.98 240.17 216.673 240.17 219.992Z" fill="white"/>
<path d="M194.724 175.428C181.381 175.428 170.569 186.24 170.569 199.583C170.569 212.92 181.381 223.738 194.724 223.738C208.063 223.738 218.879 212.92 218.879 199.583C218.879 186.239 208.061 175.428 194.724 175.428ZM194.724 210.86C188.493 210.86 183.441 205.814 183.441 199.582C183.441 193.35 188.494 188.299 194.724 188.299C200.956 188.299 206.009 193.352 206.009 199.582C206.007 205.815 200.956 210.86 194.724 210.86Z" fill="white"/>
<path d="M199.368 176.429H190.079L190.593 169.853H198.855L199.368 176.429Z" fill="white"/>
<path d="M181.687 179.559L175.119 186.127L170.833 181.114L176.676 175.272L181.687 179.559Z" fill="white"/>
<path d="M171.399 194.274V203.563L164.823 203.05V194.787L171.399 194.274Z" fill="white"/>
<path d="M174.528 211.955L181.097 218.523L176.084 222.81L170.242 216.968L174.528 211.955Z" fill="white"/>
<path d="M189.244 222.244H198.533L198.02 228.819H189.757L189.244 222.244Z" fill="white"/>
<path d="M206.924 219.114L213.493 212.546L217.779 217.558L211.936 223.401L206.924 219.114Z" fill="white"/>
<path d="M217.214 204.398V195.109L223.789 195.623V203.885L217.214 204.398Z" fill="white"/>
<path d="M214.084 186.718L207.515 180.15L212.528 175.864L218.37 181.706L214.084 186.718Z" fill="white"/>
<path d="M423.497 187.524C432.005 152.205 410.27 116.675 374.951 108.166C339.631 99.658 304.101 121.393 295.593 156.713C287.084 192.032 308.819 227.562 344.139 236.07C379.459 244.579 414.988 222.844 423.497 187.524Z" fill="#064CC1"/>
<g opacity="0.1">
<path d="M307.295 187.929C305.784 182.926 304.973 177.621 304.973 172.126C304.973 159.841 309.032 148.503 315.882 139.382C325.838 126.126 341.691 117.551 359.547 117.551C380.085 117.551 397.973 128.896 407.288 145.663" stroke="black" stroke-width="3" stroke-miterlimit="10"/>
<path d="M372.878 225.061C368.612 226.132 364.147 226.7 359.547 226.7C339.859 226.7 322.605 216.275 313.006 200.641" stroke="black" stroke-width="3" stroke-miterlimit="10"/>
<path d="M410.736 153.162C412.925 159.069 414.121 165.457 414.121 172.126C414.121 191.87 403.635 209.166 387.93 218.748" stroke="black" stroke-width="3" stroke-miterlimit="10"/>
</g>
<path d="M345.704 154.711C345.704 162.357 351.902 168.555 359.547 168.555C367.192 168.555 373.39 162.357 373.39 154.71C373.39 147.065 367.192 140.867 359.547 140.867C351.902 140.868 345.704 147.066 345.704 154.711Z" fill="white"/>
<path d="M335.625 192.899V198.609C339.578 201.065 343.971 202.942 348.745 204.1C361.086 207.115 373.467 204.8 383.47 198.589V192.897C383.47 179.718 372.767 168.975 359.548 168.975C346.328 168.977 335.625 179.719 335.625 192.899Z" fill="white"/>
<path d="M124.557 688.023C298.033 687.12 492.634 687.113 666.109 688.023C492.633 688.934 298.031 688.928 124.557 688.023Z" fill="#263238"/>
<path d="M396.501 673.568H382.163V682.929H396.501V673.568Z" fill="#455A64"/>
<path d="M415.095 672.948H400.756V682.309H415.095V672.948Z" fill="#455A64"/>
<path d="M433.69 672.329H419.351V681.691H433.69V672.329Z" fill="#455A64"/>
<path d="M452.283 671.711H437.944V681.073H452.283V671.711Z" fill="#455A64"/>
<path d="M470.878 671.093H456.539V680.454H470.878V671.093Z" fill="#455A64"/>
<path d="M489.472 670.475H475.133V679.836H489.472V670.475Z" fill="#455A64"/>
<path d="M508.066 669.855H493.727V679.216H508.066V669.855Z" fill="#455A64"/>
<path d="M526.661 669.236H512.322V678.598H526.661V669.236Z" fill="#455A64"/>
<path d="M545.255 668.618H530.916V677.98H545.255V668.618Z" fill="#455A64"/>
<path d="M548.765 688.312H378.652V676.922L548.765 672.179V688.312Z" fill="#37474F"/>
<path d="M647.919 642.464H412.11L449.611 466.91H685.42L647.919 642.464Z" fill="#455A64"/>
<path d="M656.642 642.464H420.833L458.334 466.91H694.143L656.642 642.464Z" fill="#37474F"/>
<path d="M577.865 544.515C576.59 552.568 569.029 559.095 560.976 559.095C552.924 559.095 547.43 552.568 548.706 544.515C549.981 536.462 557.542 529.935 565.595 529.935C573.648 529.935 579.142 536.462 577.865 544.515Z" fill="#263238"/>
<path d="M589.949 688.312H473.971V679.306L589.949 675.557V688.312Z" fill="#455A64"/>
<path d="M621.481 688.301H559.213L521.712 589.928H583.98L621.481 688.301Z" fill="#455A64"/>
<path d="M631.731 688.301H569.461L531.96 589.928H594.229L631.731 688.301Z" fill="#263238"/>
<path d="M424.761 688.312C424.761 688.312 324.22 688.312 314.836 688.312C305.452 688.312 319.028 661.6 353.265 651.351C387.502 641.104 435.56 678.293 424.761 688.312Z" fill="#37474F"/>
<path d="M381.624 688.312C381.348 685.236 381.775 682.14 382.553 679.15C383.324 676.15 384.579 673.271 386.162 670.572C387.76 667.882 389.833 665.451 392.239 663.449C394.582 661.367 397.479 659.975 400.389 659.079C398.087 661.151 395.819 662.972 393.956 665.229C392.076 667.426 390.303 669.695 388.873 672.208C385.865 677.15 383.667 682.554 381.624 688.312Z" fill="#263238"/>
<path d="M394.65 662.896C398.044 663.602 401.288 664.804 404.423 666.229C407.569 667.646 410.561 669.405 413.419 671.388C416.252 673.396 418.908 675.759 421.073 678.571C423.209 681.33 424.975 684.774 424.761 688.311C423.642 685.016 421.513 682.501 419.212 680.199C416.863 677.938 414.322 675.84 411.579 673.964C406.181 670.091 400.404 666.692 394.65 662.896Z" fill="#263238"/>
<path d="M559.253 290.335H401.909V350.153L376.111 371.998H401.909V381.152H559.253V290.335Z" fill="white"/>
<path d="M559.253 290.335C520.014 290.561 441.128 290.759 401.907 290.819L402.391 290.335L402.53 350.153V350.44L402.309 350.628L376.56 372.53L376.11 371.303L401.906 371.274L402.632 371.272L402.63 371.998L402.611 381.152C398.381 379.245 560.085 381.211 559.251 380.613C559.251 380.615 558.714 381.152 558.714 381.152C558.714 358.525 559.07 312.963 559.253 290.335ZM559.253 290.335C559.425 312.972 559.778 358.515 559.79 381.152L559.793 381.689C558.341 381.683 402.628 381.862 401.205 381.857L401.203 381.152L401.184 371.998L401.909 372.723L376.113 372.693L374.212 372.692L375.664 371.468L401.507 349.677L401.288 350.153L401.426 290.335L401.428 289.85L401.912 289.851C441.113 289.919 520.061 290.115 559.253 290.335Z" fill="#263238"/>
<path d="M532.657 339.424H417.558V341.386H532.657V339.424Z" fill="#263238"/>
<path d="M513.743 350.014H417.558V351.975H513.743V350.014Z" fill="#263238"/>
<path d="M519.258 318.247H417.558V320.208H519.258V318.247Z" fill="#263238"/>
<path d="M543.277 307.658H417.558V309.619H543.277V307.658Z" fill="#263238"/>
<path d="M521.321 360.602H417.558V362.563H521.321V360.602Z" fill="#263238"/>
</g>
<defs>
<clipPath id="clip0_120_468">
<rect width="750.584" height="688.642" fill="white" transform="translate(26.4162)"/>
</clipPath>
</defs>
</svg>
