<svg width="652" height="652" viewBox="0 0 652 652" fill="none" xmlns="http://www.w3.org/2000/svg">
<path d="M511.025 458.369C477.46 501.127 428.312 531.367 375.004 542.021C336.823 549.662 303.089 561.92 265.794 561.294C259.939 561.202 254.006 560.772 247.943 559.977C205.067 554.304 164.408 533.818 133.882 503.227C126.684 496.015 120.046 488.244 114.074 479.963C82.804 436.618 80.5481 379.999 79.9613 326.548C79.3354 271.141 101.608 215.838 140.441 176.314C179.261 136.803 234.172 113.565 289.579 113.2C351.428 112.796 418.401 116.199 469.649 150.847C520.883 185.494 556.978 243.483 560.277 305.24C563.185 359.513 544.576 415.611 511.025 458.369Z" fill="#B0CAF4"/>
<path d="M560.815 417.691H405.492C399.37 417.691 394.727 412.172 395.774 406.14L442.332 138.06C443.517 131.24 449.437 126.26 456.358 126.26H611.682C617.804 126.26 622.446 131.778 621.399 137.811L574.842 405.891C573.657 412.711 567.738 417.691 560.815 417.691Z" fill="#2A2A59"/>
<path d="M540.342 134.878C538.879 143.304 531.567 149.455 523.015 149.455H521.132C513.406 149.455 507.546 142.489 508.868 134.878H448.33L403.893 390.74H561.067L605.502 134.878H540.342Z" fill="#060305"/>
<path d="M523.967 141.59C526.821 141.59 529.135 139.276 529.135 136.422C529.135 133.568 526.821 131.254 523.967 131.254C521.113 131.254 518.799 133.568 518.799 136.422C518.799 139.276 521.113 141.59 523.967 141.59Z" fill="#4285F4"/>
<path d="M613.065 126.26L562.199 417.691" stroke="#060305" stroke-miterlimit="10" stroke-linecap="round" stroke-linejoin="round"/>
<path d="M469.771 404.914C478.559 404.987 487.347 405.06 496.134 405.134" stroke="#060305" stroke-miterlimit="10" stroke-linecap="round" stroke-linejoin="round"/>
<path d="M460.813 96.5143H265.241V140.009H420.621L428.492 153.643L436.363 140.009H460.813V96.5143Z" fill="#F6921E"/>
<path d="M195.514 167.612H391.085V211.109H235.706L227.834 224.741L219.964 211.109H195.514V167.612Z" fill="white"/>
<path d="M228.602 141.59C227.313 145.593 221.649 145.593 220.36 141.59C219.072 137.586 213.409 137.586 212.119 141.59C210.831 145.593 205.167 145.593 203.878 141.59C202.589 137.586 196.926 137.586 195.638 141.59C194.349 145.593 188.686 145.593 187.398 141.59C186.109 137.586 180.446 137.586 179.158 141.59C177.87 145.593 172.205 145.593 170.917 141.59C169.628 137.586 163.964 137.586 162.675 141.59C161.387 145.593 155.724 145.593 154.435 141.59C153.147 137.586 147.482 137.586 146.194 141.59" stroke="#060305" stroke-miterlimit="10" stroke-linecap="round" stroke-linejoin="round"/>
<path d="M510.273 487.289C508.985 491.292 503.32 491.292 502.032 487.289C500.744 483.286 495.081 483.286 493.792 487.289C492.504 491.292 486.841 491.292 485.552 487.289C484.264 483.286 478.601 483.286 477.312 487.289C476.024 491.292 470.361 491.292 469.072 487.289C467.784 483.286 462.119 483.286 460.832 487.289C459.544 491.292 453.879 491.292 452.591 487.289C451.303 483.286 445.639 483.286 444.351 487.289C443.063 491.292 437.398 491.292 436.11 487.289C434.821 483.286 429.158 483.286 427.87 487.289" stroke="#060305" stroke-miterlimit="10" stroke-linecap="round" stroke-linejoin="round"/>
<path d="M341.383 235.87C340.095 239.873 334.43 239.873 333.142 235.87C331.854 231.867 326.19 231.867 324.901 235.87C323.612 239.873 317.949 239.873 316.659 235.87C315.371 231.867 309.708 231.867 308.419 235.87C307.131 239.873 301.466 239.873 300.178 235.87C298.89 231.867 293.227 231.867 291.937 235.87C290.649 239.873 284.985 239.873 283.697 235.87C282.409 231.867 276.745 231.867 275.456 235.87C274.167 239.873 268.504 239.873 267.214 235.87C265.926 231.867 260.263 231.867 258.974 235.87" stroke="#060305" stroke-miterlimit="10" stroke-linecap="round" stroke-linejoin="round"/>
<path d="M327.479 325.769C318.472 315.408 305.313 309.813 292.631 304.554L275.454 354.092C279.438 355.791 283.422 357.492 287.406 359.191C270.727 375.084 255.794 392.526 243.376 411.931C247.085 423.22 251.123 434.03 256.72 444.513C262.036 445.055 267.205 445.973 272.523 446.516C275.327 442.705 277.705 439.181 280.51 435.37C278.375 433.46 273.999 435.128 273.034 437.825C272.635 435.973 272.377 433.726 271.979 431.874C290.765 418.893 308.267 403.589 324.562 387.592C332.619 379.682 337.865 368.267 338.367 356.988C338.868 345.707 334.885 334.29 327.479 325.769Z" fill="#FF9A7D"/>
<path d="M287.093 359.231C288.561 357.879 290.031 356.528 291.499 355.176" stroke="#060305" stroke-miterlimit="10" stroke-linecap="round" stroke-linejoin="round"/>
<path d="M270.966 426.218C271.355 428.386 271.742 430.555 272.129 432.723" stroke="#060305" stroke-miterlimit="10" stroke-linecap="round" stroke-linejoin="round"/>
<path d="M265.794 561.294C259.939 561.202 254.006 560.772 247.943 559.977C205.067 554.304 164.408 533.818 133.882 503.227C133.686 469.401 138.876 435.536 149.269 403.366C182.821 389.857 220.546 386.453 255.193 396.755C266.668 450.688 270.045 506.278 265.794 561.294Z" fill="#4285F4"/>
<path d="M212.206 453.02C215.147 472.581 218.086 492.141 221.027 511.703C223.075 525.329 222.838 538.474 218.626 551.259" fill="#4285F4"/>
<path d="M212.206 453.02C215.147 472.581 218.086 492.141 221.027 511.703C223.075 525.329 222.838 538.474 218.626 551.259" stroke="#060305" stroke-miterlimit="10" stroke-linecap="round" stroke-linejoin="round"/>
<path d="M146.255 414.025C183.14 412.496 220.025 410.966 256.91 409.435L146.255 414.025Z" fill="#4285F4"/>
<path d="M146.255 414.025C183.14 412.496 220.025 410.966 256.91 409.435" stroke="#060305" stroke-miterlimit="10" stroke-linecap="round" stroke-linejoin="round"/>
<path d="M170.138 413.386C166.475 426.563 156.906 437.977 144.572 443.884L170.138 413.386Z" fill="#4285F4"/>
<path d="M170.138 413.386C166.475 426.563 156.906 437.977 144.572 443.884" stroke="#060305" stroke-miterlimit="10" stroke-linecap="round" stroke-linejoin="round"/>
<path d="M242.043 410.339C249.11 421.466 256.177 432.592 263.244 443.719L242.043 410.339Z" fill="#4285F4"/>
<path d="M242.043 410.339C249.11 421.466 256.177 432.592 263.244 443.719" stroke="#060305" stroke-miterlimit="10" stroke-linecap="round" stroke-linejoin="round"/>
<path d="M130.905 394.108C122.4 387.982 114.088 381.575 105.584 375.449C109.929 371.712 114.273 367.974 118.62 364.238L74.5014 327.944C68.0675 334.259 60.8134 340.491 55.3405 347.655C49.9576 354.704 45.7574 363.103 45.7926 371.971C45.8213 379.558 48.9822 386.897 53.5618 392.946C58.1415 398.994 63.8217 404.409 70.4069 408.177C89.6617 419.189 108.782 431.754 127.2 444.115C125.49 445.774 123.78 447.432 122.07 449.091C121.56 449.585 121.033 450.106 120.803 450.777C120.572 451.449 120.684 452.182 121.31 452.518C123.433 451.892 126.054 451.253 128.177 450.626C126.755 451.709 125.423 452.912 124.201 454.216C123.735 454.713 123.267 455.26 123.147 455.931C123.027 456.601 123.414 457.482 124.087 457.585C131.682 456.39 139.565 455.22 147.159 454.024C149.231 442.761 151.231 431.491 153.302 420.23C147.529 410.386 140.166 400.778 130.905 394.108Z" fill="#FF9A7D"/>
<path d="M98.5237 370.897C101.164 372.462 103.806 374.026 106.447 375.591" stroke="#060305" stroke-miterlimit="10" stroke-linecap="round" stroke-linejoin="round"/>
<path d="M126.754 444.015C129.176 445.592 131.598 447.17 134.02 448.748" stroke="#060305" stroke-miterlimit="10" stroke-linecap="round" stroke-linejoin="round"/>
<path d="M127.021 451.264C128.431 450.232 129.842 449.202 131.252 448.17" stroke="#060305" stroke-miterlimit="10" stroke-linecap="round" stroke-linejoin="round"/>
<path d="M298.722 300.991C278.793 293.426 258.65 286.19 237.511 283.45C222.323 281.483 206.874 279.169 191.687 277.2C190.452 280.656 186.896 283.141 183.226 283.113C179.557 283.085 175.903 280.467 174.72 276.993C157.401 283.848 140.082 290.703 122.762 297.558C103.051 305.36 85.0664 317.158 67.4312 328.92C84.0467 342.258 100.75 356.006 117.367 369.345C123.383 365.269 129.251 361.516 135.268 357.439C139.969 374.385 143.877 388.275 148.578 405.222L256.64 399.992C256.55 382.577 256.692 368.449 256.602 351.035C263.133 353.475 270.257 356.235 276.787 358.673C284.156 339.466 291.351 320.197 298.722 300.991Z" fill="white"/>
<path d="M163.283 282.828C165.422 288.768 170.128 293.65 175.846 295.861C181.564 298.071 188.196 297.569 193.546 294.523C198.898 291.477 202.875 285.938 204.165 279.739" stroke="#060305" stroke-miterlimit="10" stroke-linecap="round" stroke-linejoin="round"/>
<path d="M111.783 303.226C125.018 318.889 133.415 338.584 135.553 358.978" stroke="#060305" stroke-miterlimit="10" stroke-linecap="round" stroke-linejoin="round"/>
<path d="M257.115 351.802C256.236 330.32 255.357 308.838 254.478 287.355" stroke="#060305" stroke-miterlimit="10" stroke-linecap="round" stroke-linejoin="round"/>
<path d="M75.5433 323.895C90.6176 338.113 105.691 352.332 120.765 366.549" stroke="#060305" stroke-miterlimit="10" stroke-linecap="round" stroke-linejoin="round"/>
<path d="M291.344 299.195C285.839 318.606 279.84 337.878 273.354 356.984" stroke="#060305" stroke-miterlimit="10" stroke-linecap="round" stroke-linejoin="round"/>
<path d="M199.611 280.351C198.2 280.193 196.658 279.885 195.247 279.728C195.282 276.907 194.852 274.273 194.887 271.452C187.726 271.368 181.143 271.195 173.981 271.111C173.708 273.931 173.436 276.753 173.165 279.574C171.483 280.279 169.21 281.257 167.529 281.963C170.348 288.833 176.908 293.719 184.319 293.232C191.728 292.745 197.714 287.532 199.611 280.351Z" fill="#FF9A7D"/>
<path d="M175.126 239.979C175.826 237.604 177.34 235.476 179.353 234.035C181.367 232.594 183.869 231.847 186.343 231.95" stroke="#060305" stroke-miterlimit="10" stroke-linecap="round" stroke-linejoin="round"/>
<path d="M166.813 250.616C165.959 250.574 165.105 250.534 164.249 250.493" stroke="#060305" stroke-miterlimit="10" stroke-linecap="round" stroke-linejoin="round"/>
<path d="M198.2 276.293C202.725 273.648 205.373 268.118 204.6 262.935C204.356 261.297 203.596 259.672 201.971 259.349C200.974 256.915 199.594 254.532 198.597 252.1C199.515 251.838 200.233 250.981 200.33 250.03C200.426 249.08 199.901 248.107 199.054 247.666C200.054 247.257 200.639 246.034 200.328 244.998C200.017 243.963 198.91 243.629 197.849 243.839C196.744 239.148 192.739 235.273 188.015 234.324C183.29 233.374 178.012 235.665 175.179 239.564C173.928 238.932 172.312 239.103 171.22 239.983C170.129 240.864 169.795 242.595 170.15 243.952C168.559 243.796 166.917 244.711 166.214 246.147C165.512 247.583 165.761 249.541 166.86 250.703C164.634 252.204 163.378 255.025 163.751 257.683C164.124 260.342 166.109 262.708 168.662 263.537C170.162 269.331 174.436 274.31 179.896 276.761C185.352 279.21 193.034 279.313 198.2 276.293Z" fill="#060305"/>
<path d="M175.203 258.476C173.367 258.251 171.438 258.582 169.873 259.569C168.31 260.555 167.151 262.227 166.952 264.065C166.69 266.487 168.19 268.945 170.39 269.992C172.588 271.038 175.329 270.709 177.335 269.328L175.203 258.476Z" fill="#FF9A7D"/>
<path d="M170.24 262.76C171.543 263.001 172.845 263.242 174.147 263.484" stroke="#060305" stroke-miterlimit="10" stroke-linecap="round" stroke-linejoin="round"/>
<path d="M202.677 261.013C202.36 257.025 201.064 252.671 198.307 249.772C196.341 247.704 193.521 246.867 190.667 246.855C190.191 248.073 189.178 249.07 187.952 249.527C186.726 249.983 185.562 249.73 184.405 249.121C183.897 252.865 180.97 256.166 177.313 257.116C178.25 259.986 179.001 262.852 179.94 265.723C186.027 260.697 195.287 258.24 202.677 261.013Z" fill="#FF9A7D"/>
<path d="M186.181 259.076C186.901 259.076 187.485 258.492 187.485 257.772C187.485 257.052 186.901 256.468 186.181 256.468C185.461 256.468 184.877 257.052 184.877 257.772C184.877 258.492 185.461 259.076 186.181 259.076Z" fill="#060305"/>
<path d="M198.005 256.828C198.725 256.828 199.309 256.244 199.309 255.524C199.309 254.804 198.725 254.22 198.005 254.22C197.284 254.22 196.701 254.804 196.701 255.524C196.701 256.244 197.284 256.828 198.005 256.828Z" fill="#060305"/>
<path d="M193.45 262.727L190.049 262.567C189.821 263.551 190.644 264.64 191.653 264.687C192.662 264.735 193.585 263.73 193.45 262.727Z" fill="white"/>
<path d="M183.743 253.614C184.568 252.664 186.027 252.33 187.184 252.826" stroke="#060305" stroke-miterlimit="10" stroke-linecap="round" stroke-linejoin="round"/>
<path d="M194.536 249.183C195.063 249.05 195.588 248.917 196.114 248.782" stroke="#060305" stroke-miterlimit="10" stroke-linecap="round" stroke-linejoin="round"/>
<path d="M192.796 254.935C193.501 256.272 194.203 257.612 194.908 258.95C194.215 259.193 193.385 259.634 192.693 259.878" stroke="#060305" stroke-miterlimit="10" stroke-linecap="round" stroke-linejoin="round"/>
<path d="M190.657 245.997C191.208 247.109 191.132 248.508 190.465 249.556" stroke="#060305" stroke-miterlimit="10" stroke-linecap="round" stroke-linejoin="round"/>
<path d="M454.391 297.502C451.6 297.502 448.851 296.54 446.659 294.76C439.688 289.103 427.614 283.514 409.696 289.021C408.236 289.471 406.688 288.65 406.239 287.188C405.791 285.727 406.612 284.179 408.073 283.731C428.32 277.515 442.129 283.96 450.146 290.463C451.607 291.649 453.427 292.161 455.283 291.908C457.116 291.655 458.715 290.682 459.785 289.169L470.625 273.828C471.508 272.582 473.233 272.282 474.483 273.166C475.731 274.047 476.027 275.775 475.145 277.022L464.304 292.362C462.341 295.141 459.405 296.926 456.039 297.389C455.49 297.465 454.94 297.502 454.391 297.502Z" fill="#064CC1"/>
<path d="M443.893 286.481C443.161 288.191 442.429 289.899 441.696 291.607L443.893 286.481Z" fill="#064CC1"/>
<path d="M443.893 286.481C443.161 288.191 442.429 289.899 441.696 291.607" stroke="#060305" stroke-miterlimit="10" stroke-linecap="round" stroke-linejoin="round"/>
<path d="M447.528 289.157C446.874 290.946 446.221 292.736 445.568 294.525L447.528 289.157Z" fill="#064CC1"/>
<path d="M447.528 289.157C446.874 290.946 446.221 292.736 445.568 294.525" stroke="#060305" stroke-miterlimit="10" stroke-linecap="round" stroke-linejoin="round"/>
<path d="M451.879 291.113C451.715 292.821 451.552 294.531 451.388 296.239L451.879 291.113Z" fill="#064CC1"/>
<path d="M451.879 291.113C451.715 292.821 451.552 294.531 451.388 296.239" stroke="#060305" stroke-miterlimit="10" stroke-linecap="round" stroke-linejoin="round"/>
<path d="M455.76 292.357C456.028 293.898 456.297 295.441 456.566 296.982L455.76 292.357Z" fill="#064CC1"/>
<path d="M455.76 292.357C456.028 293.898 456.297 295.441 456.566 296.982" stroke="#060305" stroke-miterlimit="10" stroke-linecap="round" stroke-linejoin="round"/>
<path d="M459.282 290.137C460.26 291.683 461.238 293.228 462.217 294.773L459.282 290.137Z" fill="#064CC1"/>
<path d="M459.282 290.137C460.26 291.683 461.238 293.228 462.217 294.773" stroke="#060305" stroke-miterlimit="10" stroke-linecap="round" stroke-linejoin="round"/>
<path d="M461.882 287.062C463.208 288.174 464.533 289.285 465.859 290.394L461.882 287.062Z" fill="#064CC1"/>
<path d="M461.882 287.062C463.208 288.174 464.533 289.285 465.859 290.394" stroke="#060305" stroke-miterlimit="10" stroke-linecap="round" stroke-linejoin="round"/>
<path d="M393.481 280.824C388.758 283.045 386.237 288.048 386.949 292.959L396.972 288.247L399.844 294.357L389.822 299.07C393.15 302.751 398.611 304.002 403.334 301.781C409.121 299.061 411.606 292.164 408.885 286.377C406.163 280.59 399.267 278.104 393.481 280.824Z" fill="#064CC1"/>
<path d="M398.488 300.671C401.084 300.576 403.621 299.355 405.313 297.385C407.006 295.415 407.831 292.723 407.534 290.141" fill="#064CC1"/>
<path d="M398.488 300.671C401.084 300.576 403.621 299.355 405.313 297.385C407.006 295.415 407.831 292.723 407.534 290.141" stroke="#060305" stroke-miterlimit="10" stroke-linecap="round" stroke-linejoin="round"/>
<path d="M517.715 321.711C502.387 325.152 487.009 317.598 481.54 303.94L467.729 269.453L540.567 253.101L542.823 290.182C543.717 304.866 533.044 318.27 517.715 321.711Z" fill="#064CC1"/>
<path d="M523.463 315.735C532.598 312.603 539.449 303.686 540.123 294.053" stroke="white" stroke-miterlimit="10" stroke-linecap="round" stroke-linejoin="round"/>
<path d="M517.55 274.728C517.165 273.013 515.463 271.936 513.749 272.321C512.034 272.706 510.957 274.407 511.341 276.122C511.726 277.837 513.428 278.914 515.143 278.529C516.857 278.144 517.935 276.443 517.55 274.728Z" fill="white"/>
<path d="M509.061 275.008C508.899 272.668 511.128 270.457 513.467 270.639" stroke="#060305" stroke-miterlimit="10" stroke-linecap="round" stroke-linejoin="round"/>
<path d="M528.745 272.215C528.36 270.501 526.658 269.423 524.943 269.808C523.229 270.193 522.151 271.895 522.536 273.609C522.921 275.324 524.623 276.401 526.337 276.016C528.052 275.631 529.129 273.929 528.745 272.215Z" fill="#4285F4"/>
<path d="M520.269 272.08C520.159 269.493 522.887 267.194 525.418 267.741" stroke="#060305" stroke-miterlimit="10" stroke-linecap="round" stroke-linejoin="round"/>
<path d="M561.144 317.038C559.643 317.038 558.409 315.837 558.378 314.328C557.68 280.299 538.596 269.422 537.784 268.976C536.45 268.242 535.953 266.564 536.682 265.226C537.411 263.888 539.08 263.388 540.418 264.11C541.346 264.609 563.144 276.779 563.911 314.214C563.942 315.743 562.728 317.006 561.201 317.038C561.183 317.038 561.162 317.038 561.144 317.038Z" fill="#064CC1"/>
<path d="M551.052 282.797C552.839 281.896 554.626 280.995 556.413 280.093L551.052 282.797Z" fill="#064CC1"/>
<path d="M551.052 282.797C552.839 281.896 554.626 280.995 556.413 280.093" stroke="#060305" stroke-miterlimit="10" stroke-linecap="round" stroke-linejoin="round"/>
<path d="M552.018 284.71C553.641 284.126 555.263 283.542 556.885 282.958L552.018 284.71Z" fill="#064CC1"/>
<path d="M552.018 284.71C553.641 284.126 555.263 283.542 556.885 282.958" stroke="#060305" stroke-miterlimit="10" stroke-linecap="round" stroke-linejoin="round"/>
<path d="M553.462 286.87C555.096 286.154 556.731 285.436 558.365 284.719L553.462 286.87Z" fill="#064CC1"/>
<path d="M553.462 286.87C555.096 286.154 556.731 285.436 558.365 284.719" stroke="#060305" stroke-miterlimit="10" stroke-linecap="round" stroke-linejoin="round"/>
<path d="M553.734 289.853C555.688 289.204 557.641 288.554 559.595 287.906L553.734 289.853Z" fill="#064CC1"/>
<path d="M553.734 289.853C555.688 289.204 557.641 288.554 559.595 287.906" stroke="#060305" stroke-miterlimit="10" stroke-linecap="round" stroke-linejoin="round"/>
<path d="M554.965 292.328C556.837 291.756 558.707 291.183 560.578 290.611L554.965 292.328Z" fill="#064CC1"/>
<path d="M554.965 292.328C556.837 291.756 558.707 291.183 560.578 290.611" stroke="#060305" stroke-miterlimit="10" stroke-linecap="round" stroke-linejoin="round"/>
<path d="M545.875 320.18C543.765 324.954 545.144 330.384 548.9 333.626L553.377 323.496L559.553 326.226L555.076 336.355C560.003 336.952 564.945 334.316 567.055 329.54C569.639 323.692 566.993 316.855 561.145 314.271C555.295 311.686 548.46 314.332 545.875 320.18Z" fill="#064CC1"/>
<path d="M558.391 333.619C562.658 332.872 565.901 328.39 565.275 324.104L558.391 333.619Z" fill="#064CC1"/>
<path d="M558.391 333.619C562.658 332.872 565.901 328.39 565.275 324.104" stroke="#060305" stroke-miterlimit="10" stroke-linecap="round" stroke-linejoin="round"/>
<path d="M497.677 344.385C499.328 341.974 502.392 340.615 505.287 341.01C508.81 341.492 511.614 344.244 515.034 345.221C519.407 346.47 524.508 344.312 526.656 340.304" stroke="white" stroke-miterlimit="10" stroke-linecap="round" stroke-linejoin="round"/>
<path d="M498.561 356.64C498.574 353.059 502.905 350.93 506.458 351.372C510.011 351.814 513.145 353.863 516.573 354.897C520.001 355.931 524.434 355.538 526.184 352.415" stroke="white" stroke-miterlimit="10" stroke-linecap="round" stroke-linejoin="round"/>
<path d="M425.36 185.948L418.016 180.27" stroke="white" stroke-miterlimit="10" stroke-linecap="round" stroke-linejoin="round"/>
<path d="M433.519 203.968C439.519 203.968 444.382 199.104 444.382 193.104C444.382 187.104 439.519 182.24 433.519 182.24C427.519 182.24 422.655 187.104 422.655 193.104C422.655 199.104 427.519 203.968 433.519 203.968Z" fill="#003B9D"/>
<path d="M415.634 181.274C417.286 181.274 418.624 179.936 418.624 178.284C418.624 176.633 417.286 175.294 415.634 175.294C413.983 175.294 412.644 176.633 412.644 178.284C412.644 179.936 413.983 181.274 415.634 181.274Z" fill="#064CC1"/>
<path d="M476.175 165.927C442.076 165.927 414.432 201.098 414.432 244.482H537.92C537.918 201.098 510.275 165.927 476.175 165.927Z" fill="#064CC1"/>
<path d="M430.83 199.387C437.273 186.124 449.169 175.612 463.124 170.849L430.83 199.387Z" fill="#064CC1"/>
<path d="M430.83 199.387C437.273 186.124 449.169 175.612 463.124 170.849" stroke="white" stroke-miterlimit="10" stroke-linecap="round" stroke-linejoin="round"/>
<path d="M448.922 220.133H493.765C493.765 220.133 474.103 242.454 448.922 220.133Z" fill="white"/>
<path d="M475.274 198.271C475.274 194.481 472.202 191.408 468.411 191.408C464.62 191.408 461.548 194.48 461.548 198.271C461.548 202.061 464.62 205.133 468.411 205.133C472.202 205.133 475.274 202.061 475.274 198.271Z" fill="white"/>
<path d="M458.514 196.637C459.733 192.073 464.074 188.528 468.788 188.247L458.514 196.637Z" fill="white"/>
<path d="M458.514 196.637C459.733 192.073 464.074 188.528 468.788 188.247" stroke="#060305" stroke-miterlimit="10" stroke-linecap="round" stroke-linejoin="round"/>
<path d="M527.137 200.117C528.738 198.225 529.703 195.777 529.703 193.104C529.703 187.105 524.839 182.241 518.839 182.241C517.365 182.241 515.959 182.534 514.677 183.066C514.677 183.066 513.586 195.839 527.137 200.117Z" fill="#003B9D"/>
<path d="M527.151 186.116L534.215 180.27" stroke="white" stroke-miterlimit="10" stroke-linecap="round" stroke-linejoin="round"/>
<path d="M536.406 181.389C538.057 181.389 539.396 180.05 539.396 178.399C539.396 176.748 538.057 175.409 536.406 175.409C534.754 175.409 533.416 176.748 533.416 178.399C533.416 180.05 534.754 181.389 536.406 181.389Z" fill="#064CC1"/>
</svg>
