<svg width="219" height="56" viewBox="0 0 219 56" fill="none" xmlns="http://www.w3.org/2000/svg">
<g clip-path="url(#clip0_100_169)">
<path opacity="0.976" fill-rule="evenodd" clip-rule="evenodd" d="M82.5529 27.6881C77.6463 24.5613 72.2923 22.6141 66.4911 21.8467C55.2006 15.2677 43.9415 15.3066 32.7141 21.9636C22.6243 29.266 18.2152 39.1183 19.4867 51.521C16.1789 51.56 12.8721 51.521 9.56618 51.4041C5.12679 49.7288 3.434 46.5745 4.48782 41.9411C6.27835 38.1045 9.27027 36.6247 13.4635 37.5016C17.9106 22.1552 28.0281 12.7701 43.8156 9.34618C60.4186 7.42079 73.2916 13.3011 82.4348 26.9872C82.5489 27.2087 82.5881 27.4423 82.5529 27.6881Z" fill="#064CC1"/>
<path opacity="0.997" fill-rule="evenodd" clip-rule="evenodd" d="M66.4912 21.8467C72.2924 22.6141 77.6464 24.5613 82.553 27.6881C83.4548 28.6898 84.124 29.8581 84.5607 31.193C85.302 33.1201 85.9714 35.0674 86.5685 37.0343C91.5349 37.0131 94.448 39.4274 95.308 44.2776C94.978 47.5224 93.3246 49.8199 90.3477 51.1705C86.8217 51.5095 83.2786 51.6263 79.7186 51.521C80.8708 42.3645 78.4695 34.2646 72.5144 27.2208C70.608 25.3184 68.6003 23.5272 66.4912 21.8467Z" fill="#1967D2"/>
<path opacity="0.984" fill-rule="evenodd" clip-rule="evenodd" d="M40.5086 35.8661C38.0866 36.0367 35.7245 36.504 33.4225 37.268C33.349 35.4623 33.4671 33.6709 33.7768 31.8939C34.7818 30.249 36.2385 29.6649 38.1466 30.1415C39.5317 30.7425 40.2795 31.7939 40.3905 33.2959C40.5084 34.1492 40.5476 35.0058 40.5086 35.8661Z" fill="#6194EA"/>
<path opacity="0.996" fill-rule="evenodd" clip-rule="evenodd" d="M69.3257 42.4085C67.132 41.2946 64.8487 40.36 62.4758 39.6046C62.374 37.0162 62.4921 34.4459 62.8301 31.894C64.1167 29.9511 65.8093 29.5228 67.9084 30.6089C68.5308 31.0671 68.964 31.6512 69.2076 32.3613C69.3257 35.7093 69.3651 39.0585 69.3257 42.4085Z" fill="#6496EA"/>
<path opacity="0.97" fill-rule="evenodd" clip-rule="evenodd" d="M40.5091 35.8661C40.5485 39.216 40.5091 42.5652 40.391 45.9133C39.4724 49.033 37.5433 49.8508 34.604 48.3666C34.4141 47.9528 34.1384 47.6024 33.7773 47.3152C33.4487 43.9765 33.3306 40.6275 33.423 37.268C35.725 36.504 38.087 36.0367 40.5091 35.8661Z" fill="#064CC1"/>
<path opacity="0.948" fill-rule="evenodd" clip-rule="evenodd" d="M62.4756 39.6046C64.8485 40.36 67.1319 41.2946 69.3255 42.4084C69.3647 43.8125 69.3253 45.2144 69.2074 46.6142C67.9527 49.258 66.0631 49.8031 63.5385 48.2498C63.1105 47.7703 62.7957 47.2252 62.5937 46.6142C62.4756 44.2791 62.4364 41.9425 62.4756 39.6046Z" fill="#064CC1"/>
</g>
<g clip-path="url(#clip1_100_169)">
<path opacity="0.947" fill-rule="evenodd" clip-rule="evenodd" d="M204.924 23.981C203.525 22.6755 201.975 21.5612 200.275 20.6376C200.941 18.5491 202.318 17.9061 204.407 18.7088C206.431 20.3555 206.603 22.1128 204.924 23.981Z" fill="#4285F4"/>
<path opacity="0.965" fill-rule="evenodd" clip-rule="evenodd" d="M149.911 18.8373C154.302 18.7943 158.693 18.8373 163.083 18.9659C168.64 20.3894 171.008 23.9472 170.185 29.6389C169.785 31.9353 168.537 33.6069 166.44 34.6539C169.575 36.0484 171.297 38.4916 171.606 41.9836C171.432 46.0576 169.538 49.0152 165.924 50.8563C165.218 50.9625 164.529 51.1341 163.858 51.3707C159.209 51.4993 154.56 51.5422 149.911 51.4993C149.911 40.612 149.911 29.7245 149.911 18.8373ZM154.301 23.2094C157.23 23.1664 160.157 23.2094 163.083 23.3379C166.116 25.2357 166.761 27.7646 165.02 30.9248C164.218 31.8077 163.228 32.365 162.05 32.5965C159.468 32.7251 156.886 32.7678 154.301 32.7251C154.301 29.5532 154.301 26.3812 154.301 23.2094ZM154.301 37.0971C157.488 37.0542 160.673 37.0971 163.858 37.2257C166.662 38.8244 167.566 41.1817 166.57 44.2982C165.924 45.284 165.106 46.0985 164.116 46.7414C160.864 47.112 157.592 47.2406 154.301 47.1272C154.301 43.7838 154.301 40.4405 154.301 37.0971Z" fill="black"/>
<path opacity="0.999" fill-rule="evenodd" clip-rule="evenodd" d="M194.076 29.8961C192.905 29.293 191.7 28.7359 190.46 28.2244C189.881 27.9731 189.279 27.8445 188.652 27.8386C188.361 26.7986 188.017 25.7699 187.619 24.7524C187.369 25.5916 187.024 26.3632 186.586 27.0671C185.339 26.5375 184.047 26.1947 182.711 26.0383C183.367 23.6869 184.142 21.3723 185.036 19.0945C186.758 18.7516 188.48 18.7516 190.201 19.0945C191.573 22.6742 192.864 26.2747 194.076 29.8961Z" fill="#6596EA"/>
<path opacity="0.957" fill-rule="evenodd" clip-rule="evenodd" d="M109.36 18.8373C114.278 18.729 119.186 18.8576 124.082 19.2231C127.137 20.5506 129.074 22.8223 129.893 26.0384C133.073 19.687 137.937 17.9297 144.486 20.7661C149.305 24.7445 150.08 29.4167 146.811 34.7825C146.388 35.5037 145.914 36.1896 145.39 36.84C142.329 40.4022 139.1 43.7885 135.705 46.9986C140.181 47.1272 144.657 47.1702 149.135 47.1272C149.135 48.5847 149.135 50.0419 149.135 51.4993C142.678 51.4993 136.221 51.4993 129.764 51.4993C129.721 50.0395 129.765 48.5821 129.893 47.1272C134.747 42.2109 139.309 37.0673 143.582 31.6963C145.075 28.3785 144.257 25.8496 141.129 24.1095C137.605 23.2582 135.237 24.5014 134.026 27.8386C133.881 27.9729 133.709 28.0585 133.509 28.0958C132.464 27.6095 131.388 27.181 130.281 26.8099C130.213 30.1165 128.835 32.6883 126.148 34.5253C130.029 36.7692 131.536 40.1126 130.668 44.5554C129.536 48.2555 127.082 50.5272 123.307 51.3707C118.659 51.4993 114.01 51.5422 109.36 51.4993C109.36 40.612 109.36 29.7245 109.36 18.8373ZM113.751 23.2094C116.679 23.1664 119.607 23.2094 122.533 23.338C126.426 26.0294 126.599 28.9443 123.049 32.0821C122.533 32.2537 122.016 32.4249 121.499 32.5965C118.918 32.7251 116.335 32.7678 113.751 32.7251C113.751 29.5533 113.751 26.3812 113.751 23.2094ZM113.751 37.0972C116.938 37.0542 120.123 37.0972 123.307 37.2257C126.595 39.1325 127.327 41.7472 125.503 45.0698C124.933 45.723 124.288 46.2803 123.566 46.7414C120.31 47.1066 117.038 47.2352 113.751 47.1272C113.751 43.7839 113.751 40.4405 113.751 37.0972Z" fill="black"/>
<path opacity="0.998" fill-rule="evenodd" clip-rule="evenodd" d="M200.275 20.6376C201.975 21.5612 203.524 22.6755 204.924 23.981C202.793 25.2165 201.2 24.7021 200.146 22.4379C199.94 21.7849 199.983 21.1849 200.275 20.6376Z" fill="#01B9D7"/>
<path opacity="0.974" fill-rule="evenodd" clip-rule="evenodd" d="M182.712 26.0384C184.047 26.1948 185.339 26.5376 186.586 27.0671C185.434 30.9238 184.143 34.7388 182.712 38.5117C185.983 38.6832 189.255 38.6832 192.526 38.5117C191.312 34.9284 190.021 31.3708 188.652 27.8387C189.279 27.8446 189.881 27.9732 190.46 28.2244C191.7 28.736 192.905 29.293 194.076 29.8961C196.19 36.0805 198.385 42.2529 200.662 48.4132C200.791 44.2134 200.834 40.0128 200.791 35.8113C201.274 35.9036 201.662 36.1608 201.953 36.5828C203.035 38.0575 204.111 39.5149 205.182 40.9549C205.182 44.4698 205.182 47.9844 205.182 51.4993C202.422 51.5847 199.667 51.4991 196.917 51.2421C195.905 48.5183 194.958 45.7752 194.076 43.0123C189.775 42.7554 185.47 42.6695 181.162 42.7552C180.377 45.6294 179.43 48.4584 178.321 51.2421C176.692 51.5415 175.056 51.5845 173.414 51.3707C176.498 42.885 179.598 34.441 182.712 26.0384Z" fill="#064CC1"/>
<path opacity="0.939" fill-rule="evenodd" clip-rule="evenodd" d="M205.182 40.9549C204.111 39.5149 203.035 38.0575 201.954 36.5828C201.662 36.1608 201.275 35.9036 200.792 35.8113C200.792 33.4966 200.792 31.182 200.792 28.8674C202.255 28.8674 203.719 28.8674 205.182 28.8674C205.182 32.8966 205.182 36.9256 205.182 40.9549Z" fill="#4285F4"/>
</g>
<defs>
<clipPath id="clip0_100_169">
<rect width="107" height="52" fill="white"/>
</clipPath>
<clipPath id="clip1_100_169">
<rect width="117" height="39" fill="white" transform="translate(102 17)"/>
</clipPath>
</defs>
</svg>
